<svg xmlns="http://www.w3.org/2000/svg" viewBox="0 0 400 300" width="406" height="306" class="illustration styles_illustrationTablet__1DWOa"><g id="_147_rocket_launch_flatline" data-name="#147_rocket_launch_flatline"><path d="M312.34,150A112.34,112.34,0,1,1,200,37.66,112.05,112.05,0,0,1,312.34,150Z" fill="#fff"></path><path d="M200,262.84A112.84,112.84,0,0,1,87.16,150,112.85,112.85,0,1,1,200,262.84Zm0-224.68A111.84,111.84,0,1,0,311.84,150,112,112,0,0,0,200,38.16Z" fill="#231f20"></path><path d="M219.15,224.28a.51.51,0,0,1-.31-.11.5.5,0,0,1-.08-.7,13.83,13.83,0,0,0,.63-1.65c1.61-4.56,5.84-16.55,15.3-14.77.61-2.27,3.6-11.81,11.54-15.29,5.11-2.25,11.2-1.47,18.1,2.32.5-3.1,3.06-15.19,13.08-22.51,7.8-5.69,18.21-7.24,31-4.59a.5.5,0,0,1,.39.59.52.52,0,0,1-.6.39c-12.45-2.59-22.6-1.1-30.16,4.42-11.15,8.14-12.77,22.4-12.78,22.54a.52.52,0,0,1-.27.4.51.51,0,0,1-.48,0c-6.87-3.92-12.87-4.81-17.84-2.63-8.39,3.68-11.06,15-11.08,15.08a.5.5,0,0,1-.22.31.52.52,0,0,1-.38.07c-8.94-2.09-12.92,9.2-14.61,14a8.37,8.37,0,0,1-.8,1.94A.51.51,0,0,1,219.15,224.28Z" fill="#d1d3d4"></path><polygon points="222.31 238.84 177.69 238.84 189.38 170.71 210.62 170.71 222.31 238.84" fill="#fff"></polygon><path d="M222.31,239.34H177.69a.49.49,0,0,1-.49-.58l11.69-68.13a.5.5,0,0,1,.49-.42h21.24a.5.5,0,0,1,.49.42l11.69,68.13a.49.49,0,0,1-.49.58Zm-44-1h43.42l-11.52-67.13H189.81Z" fill="#231f20"></path><polygon points="211.24 181.53 188.2 181.53 185.43 170.46 214.01 170.46 211.24 181.53" fill="#fff"></polygon><path d="M211.24,182h-23a.51.51,0,0,1-.49-.38L185,170.58a.46.46,0,0,1,.09-.42.47.47,0,0,1,.39-.2H214a.47.47,0,0,1,.39.2.49.49,0,0,1,.1.42l-2.77,11.08A.51.51,0,0,1,211.24,182Zm-22.65-1h22.26L213.37,171h-27.3Z" fill="#231f20"></path><path d="M173.89,135.9s-12.08,7.55-16.28,20.14,5.37,36.9,5.37,36.9l22-23.82Z" fill="#fff"></path><path d="M163,193.44h-.09a.48.48,0,0,1-.37-.3c-.4-1-9.58-24.64-5.38-37.25s16.36-20.32,16.48-20.4a.52.52,0,0,1,.44,0,.53.53,0,0,1,.3.32L185.43,169a.5.5,0,0,1-.1.5l-22,23.82A.49.49,0,0,1,163,193.44Zm10.64-56.76c-2.37,1.63-12,8.75-15.53,19.51-3.68,11,3.52,31.63,5.07,35.82l21.23-23Z" fill="#231f20"></path><path d="M226.11,135.9s12.08,7.55,16.28,20.14-5.37,36.9-5.37,36.9l-22-23.82Z" fill="#fff"></path><path d="M237,193.44a.49.49,0,0,1-.37-.16l-22-23.82a.5.5,0,0,1-.1-.5l11.07-33.21a.53.53,0,0,1,.3-.32.52.52,0,0,1,.44,0c.12.08,12.28,7.79,16.48,20.4s-5,36.25-5.38,37.25a.48.48,0,0,1-.37.3ZM215.61,169l21.23,23c1.55-4.19,8.75-24.78,5.07-35.82-3.58-10.76-13.16-17.88-15.53-19.51Z" fill="#231f20"></path><path d="M219.46,174.66c6-14.37,9.79-35.2,9.79-58.38,0-35.13-19.38-53.42-26.74-59.1a4.56,4.56,0,0,0-5.58,0c-7.36,5.68-26.74,24-26.74,59.1,0,23.18,3.78,44,9.79,58.38,0,0,6,3,19.74,3S219.46,174.66,219.46,174.66Z" fill="#D44927"></path><path d="M196.93,57.18A68.47,68.47,0,0,0,176.39,84.4h46.66a68.47,68.47,0,0,0-20.54-27.22A4.56,4.56,0,0,0,196.93,57.18Z" fill="#fff"></path><path d="M223.05,84.9H176.39a.5.5,0,0,1-.46-.69,68.58,68.58,0,0,1,20.69-27.42h0a5.07,5.07,0,0,1,6.2,0,68.58,68.58,0,0,1,20.69,27.42.5.5,0,0,1-.46.69Zm-45.9-1h45.14a67.57,67.57,0,0,0-20.08-26.32,4.07,4.07,0,0,0-5,0A67.48,67.48,0,0,0,177.15,83.9Z" fill="#231f20"></path><circle cx="200.88" cy="110.51" r="18.01" fill="#fff"></circle><path d="M200.88,129a18.51,18.51,0,1,1,18.5-18.51A18.53,18.53,0,0,1,200.88,129Zm0-36a17.51,17.51,0,1,0,17.5,17.5A17.52,17.52,0,0,0,200.88,93Z" fill="#231f20"></path><circle cx="200.88" cy="110.51" r="11.11" fill="#231f20"></circle><path d="M200.88,122.12a11.61,11.61,0,1,1,11.61-11.61A11.61,11.61,0,0,1,200.88,122.12Zm0-22.22a10.61,10.61,0,1,0,10.61,10.61A10.62,10.62,0,0,0,200.88,99.9Z" fill="#231f20"></path><path d="M209.69,110a.49.49,0,0,1-.49-.42c-1.14-7.78-8-7.44-8.29-7.42a.51.51,0,0,1-.53-.46.49.49,0,0,1,.46-.53c.08,0,8.07-.44,9.34,8.27a.5.5,0,0,1-.42.56Z" fill="#fff"></path><path d="M197,103.21a.51.51,0,0,1-.39-.19.5.5,0,0,1,.09-.7,4.73,4.73,0,0,1,2.06-.86.51.51,0,0,1,.56.44.49.49,0,0,1-.43.55,3.64,3.64,0,0,0-1.58.66A.52.52,0,0,1,197,103.21Z" fill="#fff"></path><path d="M217.28,169.83l-.16,0a.5.5,0,0,1-.31-.63,259.57,259.57,0,0,0,7.53-30.13.5.5,0,1,1,1,.18,256,256,0,0,1-7.57,30.26A.49.49,0,0,1,217.28,169.83Z" fill="#fff"></path><path d="M202.57,197.82a.5.5,0,0,1-.49-.46l-1-12.78a.49.49,0,0,1,.46-.53.49.49,0,0,1,.53.46l1,12.77a.5.5,0,0,1-.46.54Z" fill="#231f20"></path><path d="M192.27,205.28h-.07a.5.5,0,0,1-.43-.56l1.74-13.47a.5.5,0,1,1,1,.13l-1.74,13.47A.5.5,0,0,1,192.27,205.28Z" fill="#231f20"></path><path d="M208.78,208.14a.49.49,0,0,1-.49-.42l-1.82-11a.51.51,0,0,1,.41-.58.51.51,0,0,1,.58.41l1.82,11a.5.5,0,0,1-.41.57Z" fill="#231f20"></path><path d="M149.43,117.06a.51.51,0,0,1-.5-.5v-3.19a.5.5,0,0,1,.5-.5.5.5,0,0,1,.5.5v3.19A.5.5,0,0,1,149.43,117.06Z" fill="#d1d3d4"></path><path d="M149.43,123.72a.5.5,0,0,1-.5-.5V120a.5.5,0,0,1,.5-.5.5.5,0,0,1,.5.5v3.19A.5.5,0,0,1,149.43,123.72Z" fill="#d1d3d4"></path><path d="M154.36,118.79h-3.19a.5.5,0,0,1-.5-.5.5.5,0,0,1,.5-.5h3.19a.5.5,0,0,1,.5.5A.5.5,0,0,1,154.36,118.79Z" fill="#d1d3d4"></path><path d="M147.7,118.79h-3.2a.5.5,0,0,1-.5-.5.51.51,0,0,1,.5-.5h3.2a.51.51,0,0,1,.5.5A.5.5,0,0,1,147.7,118.79Z" fill="#d1d3d4"></path><path d="M118.62,130.24a.5.5,0,0,1-.5-.5v-3.19a.5.5,0,0,1,1,0v3.19A.5.5,0,0,1,118.62,130.24Z" fill="#d1d3d4"></path><path d="M118.62,136.91a.5.5,0,0,1-.5-.5v-3.19a.5.5,0,0,1,1,0v3.19A.5.5,0,0,1,118.62,136.91Z" fill="#d1d3d4"></path><path d="M123.55,132h-3.19a.5.5,0,1,1,0-1h3.19a.5.5,0,0,1,0,1Z" fill="#d1d3d4"></path><path d="M116.88,132h-3.19a.5.5,0,0,1,0-1h3.19a.5.5,0,0,1,0,1Z" fill="#d1d3d4"></path><path d="M248.13,108.25a.5.5,0,0,1-.5-.5v-3.19a.5.5,0,0,1,.5-.5.5.5,0,0,1,.5.5v3.19A.5.5,0,0,1,248.13,108.25Z" fill="#d1d3d4"></path><path d="M248.13,114.91a.5.5,0,0,1-.5-.5v-3.19a.51.51,0,0,1,.5-.5.5.5,0,0,1,.5.5v3.19A.5.5,0,0,1,248.13,114.91Z" fill="#d1d3d4"></path><path d="M253.06,110h-3.19a.5.5,0,0,1-.5-.5.5.5,0,0,1,.5-.5h3.19a.5.5,0,0,1,.5.5A.5.5,0,0,1,253.06,110Z" fill="#d1d3d4"></path><path d="M246.4,110h-3.19a.5.5,0,0,1-.5-.5.5.5,0,0,1,.5-.5h3.19a.5.5,0,0,1,.5.5A.51.51,0,0,1,246.4,110Z" fill="#d1d3d4"></path><path d="M284.2,126.91a.5.5,0,0,1-.5-.5v-3.19a.5.5,0,0,1,.5-.5.5.5,0,0,1,.5.5v3.19A.5.5,0,0,1,284.2,126.91Z" fill="#d1d3d4"></path><path d="M284.2,133.57a.5.5,0,0,1-.5-.5v-3.19a.5.5,0,0,1,.5-.5.51.51,0,0,1,.5.5v3.19A.5.5,0,0,1,284.2,133.57Z" fill="#d1d3d4"></path><path d="M289.12,128.65h-3.19a.51.51,0,0,1-.5-.5.5.5,0,0,1,.5-.5h3.19a.5.5,0,0,1,.5.5A.5.5,0,0,1,289.12,128.65Z" fill="#d1d3d4"></path><path d="M282.46,128.65h-3.19a.5.5,0,0,1-.5-.5.5.5,0,0,1,.5-.5h3.19a.5.5,0,0,1,.5.5A.5.5,0,0,1,282.46,128.65Z" fill="#d1d3d4"></path><path d="M261.32,78.08a.5.5,0,0,1-.5-.5V74.39a.5.5,0,1,1,1,0v3.19A.5.5,0,0,1,261.32,78.08Z" fill="#d1d3d4"></path><path d="M261.32,84.75a.5.5,0,0,1-.5-.5V81.06a.5.5,0,0,1,1,0v3.19A.5.5,0,0,1,261.32,84.75Z" fill="#d1d3d4"></path><path d="M266.25,79.82h-3.19a.5.5,0,0,1,0-1h3.19a.5.5,0,0,1,0,1Z" fill="#d1d3d4"></path><path d="M259.58,79.82h-3.19a.5.5,0,0,1,0-1h3.19a.5.5,0,0,1,0,1Z" fill="#d1d3d4"></path><path d="M177.08,235.71H177a.5.5,0,0,1-.44-.55c0-.21,2.32-20.33-6.88-28.78-3.74-3.44-8.93-4.51-15.43-3.18a.46.46,0,0,1-.41-.1.47.47,0,0,1-.19-.37c0-.19-.64-19-12.51-26.93-6.94-4.64-16.36-4.76-28-.33a.51.51,0,0,1-.5-.09.53.53,0,0,1-.17-.49c0-.08,1.78-8.28-2.74-12.64-3.14-3-8.58-3.55-16.16-1.56a.49.49,0,0,1-.61-.36.5.5,0,0,1,.35-.61c7.94-2.08,13.7-1.47,17.12,1.82,4,3.9,3.53,10.34,3.18,12.69,11.58-4.24,21-4,28.09.75,6.44,4.32,9.62,11.63,11.15,17a49.8,49.8,0,0,1,1.77,10.12c6.57-1.22,11.86,0,15.74,3.54,9.57,8.8,7.3,28.78,7.2,29.62A.5.5,0,0,1,177.08,235.71Z" fill="#d1d3d4"></path><path d="M275.81,232.91a112.34,112.34,0,0,1-157.19-5.47c.73-.38,1.48-.73,2.25-1,19.79-8,30.55,8.49,30.55,8.49s5.16-27.25,36.58-27.25,38.73,21.44,38.73,21.44,6.45-13,20.65-12.06,16.35,18.68,16.35,18.68A32.13,32.13,0,0,1,275.81,232.91Z" fill="#fff"></path><path d="M200,262.84a111.84,111.84,0,0,1-81.74-35,.5.5,0,0,1-.13-.43.47.47,0,0,1,.26-.36,24.54,24.54,0,0,1,2.29-1.06c10.42-4.23,18.34-1.65,23.15,1.26a27.76,27.76,0,0,1,7.36,6.53c1.39-5.1,8.93-26.59,36.81-26.59,27.55,0,36.88,16.59,38.8,20.81,1.82-3,8.49-12.2,20.61-11.43,12.85.81,16.13,15.15,16.71,18.45a33.43,33.43,0,0,1,11.67-2.56.52.52,0,0,1,.48.31.51.51,0,0,1-.12.56A112.64,112.64,0,0,1,200,262.84Zm-80.55-35.26a111.84,111.84,0,0,0,155,5.92A31.35,31.35,0,0,0,264,236.15a.5.5,0,0,1-.46,0,.52.52,0,0,1-.26-.38,30,30,0,0,0-2.81-8.86c-3-5.87-7.38-9-13.07-9.38-13.71-.86-20.11,11.66-20.17,11.78a.52.52,0,0,1-.48.28.49.49,0,0,1-.44-.34c-.08-.21-7.6-21.1-38.26-21.1S152,234.71,151.91,235a.5.5,0,0,1-.91.18,26.32,26.32,0,0,0-7.73-7.12c-6.7-4-14.17-4.44-22.21-1.18C120.53,227.08,120,227.32,119.45,227.58Z" fill="#231f20"></path><path d="M238.6,238.34a.48.48,0,0,1-.37-.17c-6.44-7.11-12-8.89-15.59-9.13a11.54,11.54,0,0,0-6.23,1.18.5.5,0,0,1-.52-.85c.1-.06,10.21-6.09,23.08,8.13a.51.51,0,0,1-.37.84Z" fill="#231f20"></path><path d="M261.34,214.77a.5.5,0,0,1-.5-.46c0-.4-.66-9.72,6-16.2,4.9-4.78,12.42-6.69,22.34-5.66a.5.5,0,1,1-.1,1c-9.61-1-16.86.82-21.54,5.38-6.32,6.16-5.7,15.32-5.69,15.41a.5.5,0,0,1-.46.54Z" fill="#d1d3d4"></path><path d="M144.5,93.12a13.8,13.8,0,1,1,13.8-13.8A13.81,13.81,0,0,1,144.5,93.12Zm0-26.6a12.8,12.8,0,1,0,12.8,12.8A12.81,12.81,0,0,0,144.5,66.52Z" fill="#d1d3d4"></path><path d="M128.07,195.5a.5.5,0,0,1-.45-.28c-12-25-29.57-17.17-29.74-17.09a.5.5,0,0,1-.43-.91c.18-.08,18.61-8.36,31.07,17.56a.5.5,0,0,1-.23.67A.44.44,0,0,1,128.07,195.5Z" fill="#d1d3d4"></path></g></svg>