<svg id="Layer_1" data-name="Layer 1" xmlns="http://www.w3.org/2000/svg" xmlns:xlink="http://www.w3.org/1999/xlink" viewBox="0 0 373.96 283.99" width="406" height="306" class="illustration styles_illustrationTablet__1DWOa"><defs><linearGradient id="linear-gradient" x1="-531.62" y1="2625.21" x2="-531.81" y2="2642.45" gradientTransform="matrix(-1, 0, 0, 1, -413.32, -2463.71)" gradientUnits="userSpaceOnUse"><stop offset="0" stop-color="#68e1fd"></stop><stop offset="1" stop-color="#68e1fd"></stop></linearGradient><linearGradient id="linear-gradient-2" x1="-576.73" y1="2649.42" x2="-486.98" y2="2649.42" xlink:href="#linear-gradient"></linearGradient><linearGradient id="linear-gradient-3" x1="-760.51" y1="2763.8" x2="-760.55" y2="2694" gradientTransform="matrix(-1, 0, 0, 1, -547.04, -2505.33)" gradientUnits="userSpaceOnUse"><stop offset="0" stop-color="#183866"></stop><stop offset="1" stop-color="#68e1fd"></stop></linearGradient><linearGradient id="linear-gradient-4" x1="-551.85" y1="2818.5" x2="-579.21" y2="2687.03" gradientTransform="matrix(-1, 0, 0, 1, -413.32, -2463.71)" gradientUnits="userSpaceOnUse"><stop offset="0"></stop><stop offset="1" stop-opacity="0"></stop></linearGradient><linearGradient id="linear-gradient-5" x1="-765.3" y1="2624.15" x2="-782.87" y2="2539.73" gradientTransform="matrix(-1, 0, 0, 1, -522.71, -2293.71)" xlink:href="#linear-gradient-4"></linearGradient><linearGradient id="linear-gradient-6" x1="191.97" y1="282.35" x2="246.59" y2="88.08" gradientTransform="matrix(1, 0, 0, -1, 0, 352)" gradientUnits="userSpaceOnUse"><stop offset="0" stop-color="#fff" stop-opacity="0"></stop><stop offset="0.54" stop-color="#fff"></stop></linearGradient><linearGradient id="linear-gradient-7" x1="158.32" y1="104.44" x2="176.24" y2="198.28" gradientTransform="matrix(1, 0, 0, -1, -24.33, 310.38)" xlink:href="#linear-gradient-4"></linearGradient><linearGradient id="linear-gradient-8" x1="-633.96" y1="2447.82" x2="-635.24" y2="2410.17" gradientTransform="matrix(-1, 0, 0, 1, -522.71, -2293.71)" xlink:href="#linear-gradient-4"></linearGradient><linearGradient id="linear-gradient-9" x1="101.68" y1="188.92" x2="113.5" y2="250.87" gradientTransform="matrix(1, 0, 0, -1, 0, 352)" xlink:href="#linear-gradient-4"></linearGradient><linearGradient id="linear-gradient-10" x1="-776.43" y1="2629.77" x2="-760.22" y2="2473.82" gradientTransform="matrix(-1, 0, 0, 1, -522.71, -2293.71)" gradientUnits="userSpaceOnUse"><stop offset="0"></stop><stop offset="0.07" stop-opacity="0.84"></stop><stop offset="1" stop-opacity="0"></stop></linearGradient><linearGradient id="linear-gradient-11" x1="273.7" y1="212.74" x2="274.61" y2="172" gradientTransform="matrix(1, 0, 0.14, -1, -46.39, 350)" xlink:href="#linear-gradient-10"></linearGradient><linearGradient id="linear-gradient-12" x1="304.07" y1="201.16" x2="304.98" y2="160.41" gradientTransform="matrix(1, 0, 0.14, -1, -46.39, 350)" xlink:href="#linear-gradient-10"></linearGradient><linearGradient id="linear-gradient-13" x1="315.3" y1="172.75" x2="316.88" y2="101.92" gradientTransform="matrix(1, 0, 0.14, -1, -46.39, 350)" xlink:href="#linear-gradient-10"></linearGradient><linearGradient id="linear-gradient-14" x1="320.9" y1="159.5" x2="322.72" y2="77.57" gradientTransform="matrix(1, 0, 0.14, -1, -46.39, 350)" xlink:href="#linear-gradient-10"></linearGradient><linearGradient id="linear-gradient-15" x1="326.56" y1="146.49" x2="328.58" y2="55.75" gradientTransform="matrix(1, 0, 0.14, -1, -46.39, 350)" xlink:href="#linear-gradient-10"></linearGradient><linearGradient id="linear-gradient-16" x1="298.96" y1="136.89" x2="301.17" y2="37.66" gradientTransform="matrix(1, 0, 0, -1, 0, 352)" xlink:href="#linear-gradient-10"></linearGradient><linearGradient id="linear-gradient-17" x1="299.63" y1="225.25" x2="302.69" y2="87.72" gradientTransform="matrix(1, 0, 0.14, -1, -46.39, 350)" xlink:href="#linear-gradient-10"></linearGradient><linearGradient id="linear-gradient-18" x1="301.74" y1="124.57" x2="304.09" y2="18.88" gradientTransform="matrix(1, 0, 0, -1, 0, 352)" xlink:href="#linear-gradient-10"></linearGradient><linearGradient id="linear-gradient-19" x1="137.98" y1="165.5" x2="142.91" y2="305.03" xlink:href="#linear-gradient-6"></linearGradient><linearGradient id="linear-gradient-20" x1="-650.48" y1="2632.69" x2="-634.42" y2="2667.6" gradientTransform="matrix(-1, 0, 0, 1, -547.04, -2505.33)" xlink:href="#linear-gradient-4"></linearGradient><linearGradient id="linear-gradient-21" x1="-622.16" y1="2619.67" x2="-606.1" y2="2654.58" gradientTransform="matrix(-1, 0, 0, 1, -547.04, -2505.33)" xlink:href="#linear-gradient-4"></linearGradient><linearGradient id="linear-gradient-22" x1="-505.82" y1="2682.29" x2="-507.91" y2="2631.09" gradientTransform="matrix(-1, 0, 0, 1, -413.32, -2463.71)" gradientUnits="userSpaceOnUse"><stop offset="0" stop-color="#fff" stop-opacity="0"></stop><stop offset="0.67" stop-color="#fff"></stop></linearGradient><linearGradient id="linear-gradient-23" x1="-522.98" y1="2616.14" x2="-481.08" y2="2682.47" gradientTransform="matrix(-0.18, -0.98, -0.98, 0.18, 2611.28, -765.46)" xlink:href="#linear-gradient-4"></linearGradient><linearGradient id="linear-gradient-24" x1="-500.57" y1="2646.63" x2="-486.61" y2="2711.11" xlink:href="#linear-gradient-4"></linearGradient><linearGradient id="linear-gradient-25" x1="-519.63" y1="2813.14" x2="-546.99" y2="2681.67" xlink:href="#linear-gradient-4"></linearGradient><linearGradient id="linear-gradient-26" x1="139.84" y1="172.52" x2="199.53" y2="216.07" gradientTransform="matrix(1, 0, 0, -1, 0, 352)" xlink:href="#linear-gradient-4"></linearGradient><linearGradient id="linear-gradient-27" x1="176.86" y1="174.57" x2="188.69" y2="236.51" gradientTransform="matrix(1, 0, 0, -1, 0, 352)" xlink:href="#linear-gradient-4"></linearGradient><linearGradient id="linear-gradient-28" x1="-661.73" y1="2555.06" x2="-655.08" y2="2590.91" xlink:href="#linear-gradient-4"></linearGradient><linearGradient id="linear-gradient-29" x1="-691.01" y1="2832.55" x2="-718.38" y2="2701.08" xlink:href="#linear-gradient-4"></linearGradient><linearGradient id="linear-gradient-30" x1="-599.68" y1="2831.36" x2="-627.04" y2="2699.89" xlink:href="#linear-gradient-4"></linearGradient><linearGradient id="linear-gradient-31" x1="258.84" y1="264.16" x2="251.99" y2="251.58" gradientTransform="matrix(1, 0, 0, -1, 0, 352)" xlink:href="#linear-gradient-4"></linearGradient></defs><title>5</title><path d="M38.89,170.88c5.18,8,11.74,13.54,14.24,23.64,2.56,10.28,1.8,21.49-1.3,31.57-3.9,12.71-10.8,24.73-11.59,38C38.74,289.2,60.43,311,84.52,318.23c27.75,8.39,55.83-.45,83.63,3.09,30.51,3.88,63.59,5.57,94.26,3.21,26.63-2.06,57.3-3.95,79.45-20.38,37.22-27.62,52.58-63,56.32-107.72,1.35-16.11-9.83-30.26-15.08-45.56-8-23.23-2.37-50.2-13.75-72-6.94-13.29-19.61-23-33.51-28.6s-29-7.58-44-8.33c-20.63-1-41.59.16-61.4,6C219.56,51.17,209.07,55.8,198,58.09,179,62,167.76,52.92,150.56,48.6c-19.09-4.8-39.08-7-58.6-3.51-28.23,5-55.37,23.41-64.26,50.65-7.45,22.81-1.91,53.52,10.42,73.92C38.38,170.07,38.63,170.48,38.89,170.88Z" transform="translate(-24.33 -41.62)" fill="#D44927" opacity="0.18" style="isolation: isolate;"></path><circle cx="320.02" cy="198.26" r="21.56" fill="#f8c244"></circle><circle cx="320.03" cy="198.28" r="18.38" fill="#e8a825"></circle><path d="M335.76,247.81l1.86-2.29a8.35,8.35,0,0,1-2.66-3.8l1.77-1.08a7.73,7.73,0,0,0,2.45,3.6c1.63,1.31,3.46,1.26,4.5,0s.75-2.73-.37-4.77c-1.57-2.79-2.16-5-.56-7s4-2.22,6.38-.87l1.85-2.29,1.4,1.14-1.77,2.19a8,8,0,0,1,2.3,3.18l-1.79,1.07a6.92,6.92,0,0,0-2.23-3.08c-1.74-1.42-3.24-.9-4,0-1,1.18-.6,2.45.71,4.86,1.56,2.84,1.79,5,.16,7a5.1,5.1,0,0,1-6.71,1L337.17,249Z" transform="translate(-24.33 -41.62)" fill="#f8c244"></path><path d="M108.85,289.74c-14-.2-25.23-5-25.15-10.69,0-.63-.47-4.21-.2-4.78,2.21-4.79,13.22-5.35,25.64-5.18,12.22.18,22.48,0,24.77,4.72.34.68.39,5.28.38,6C134.22,285.48,122.82,289.94,108.85,289.74Z" transform="translate(-24.33 -41.62)" fill="#e8a825"></path><ellipse cx="108.82" cy="274.66" rx="10.32" ry="25.29" transform="translate(-191.7 337.92) rotate(-89.18)" fill="#f8c244"></ellipse><ellipse cx="108.82" cy="274.66" rx="8.79" ry="21.55" transform="translate(-191.7 337.92) rotate(-89.18)" fill="#e8a825"></ellipse><path d="M95.23,273.62l3.44.06a2.83,2.83,0,0,1,1.54-2.11l2.29.36a2.69,2.69,0,0,0-1.5,2c0,1,1.39,1.69,3.33,1.71a5.19,5.19,0,0,0,4.1-1.52,7.27,7.27,0,0,1,5.94-2.21c2.84,0,5,.89,5.49,2.18l3.44.05V275l-3.32-.06a2.45,2.45,0,0,1-1.22,1.81l-2.25-.38a2.36,2.36,0,0,0,1.19-1.75c0-1.06-1.55-1.5-2.93-1.52a4.86,4.86,0,0,0-3.92,1.67c-1.45,1.42-3.24,2.11-6.32,2.11-2.71,0-5.28-.84-5.79-2.29H95.18Z" transform="translate(-24.33 -41.62)" fill="#f8c244"></path><path d="M120.62,284.88c-14-.2-25.23-5-25.15-10.68,0-.64-.47-4.22-.2-4.79,2.2-4.79,13.22-5.34,25.64-5.18,12.22.18,22.48,0,24.77,4.73.34.67.39,5.27.38,6C146,280.62,134.59,285.08,120.62,284.88Z" transform="translate(-24.33 -41.62)" fill="#e8a825"></path><ellipse cx="120.59" cy="269.8" rx="10.32" ry="25.29" transform="translate(-175.25 344.9) rotate(-89.18)" fill="#f8c244"></ellipse><ellipse cx="120.59" cy="269.8" rx="8.79" ry="21.55" transform="translate(-175.25 344.9) rotate(-89.18)" fill="#e8a825"></ellipse><path d="M107,268.77l3.45.05a2.83,2.83,0,0,1,1.54-2.11l2.29.36a2.69,2.69,0,0,0-1.5,2c0,1,1.38,1.69,3.32,1.71a5.2,5.2,0,0,0,4.11-1.52,7.3,7.3,0,0,1,5.94-2.21c2.84,0,5,.89,5.48,2.18h3.45v.87l-3.32-.05a2.48,2.48,0,0,1-1.22,1.8l-2.25-.38a2.32,2.32,0,0,0,1.18-1.75c0-1.06-1.55-1.5-2.92-1.52a4.82,4.82,0,0,0-3.92,1.68c-1.45,1.41-3.25,2.11-6.33,2.11-2.71,0-5.27-.85-5.78-2.29l-3.56-.06Z" transform="translate(-24.33 -41.62)" fill="#f8c244"></path><path d="M118.56,170.28c25.08,0,45.43,6,45.43,13.33a4.4,4.4,0,0,1-.57,2.1c-3.45,6.36-22.22,11.22-44.87,11.22s-41.45-4.86-44.88-11.22a4.4,4.4,0,0,1-.57-2.1C73.1,176.24,93.47,170.28,118.56,170.28Z" transform="translate(-24.33 -41.62)" fill="url(#linear-gradient)"></path><path d="M118.54,174.49c22.65,0,41.44,4.86,44.87,11.22-3.45,6.36-22.22,11.22-44.87,11.22s-41.45-4.86-44.88-11.22C77.1,179.35,95.88,174.49,118.54,174.49Z" transform="translate(-24.33 -41.62)" fill="url(#linear-gradient-2)"></path><ellipse cx="213.48" cy="245.11" rx="105" ry="20.83" opacity="0.19" fill="url(#linear-gradient-3)" style="isolation: isolate;"></ellipse><path d="M150,269.2l9.35-44.4,35,13.36-7,37.74a13.09,13.09,0,0,1-.36,1.53h0a15,15,0,0,1-18.59,10.21l-9-2.64A13.55,13.55,0,0,1,150,269.2Z" transform="translate(-24.33 -41.62)" fill="#D44927"></path><path d="M150,269.2l9.06-43,9.18,3.53L159.4,285A13.54,13.54,0,0,1,150,269.2Z" transform="translate(-24.33 -41.62)" fill="url(#linear-gradient-4)"></path><path d="M252.29,265.65l.08-45.39,37,5.82.88,38.38V266h0a15.07,15.07,0,0,1-16.12,13.92l-9.38-.72A13.47,13.47,0,0,1,252.29,265.65Z" transform="translate(-24.33 -41.62)" fill="#D44927"></path><path d="M251.85,241.9s.28,14.15.42,23.75c.15,10.63,10.25,13.1,10.25,13.1l-.57-28.7Z" transform="translate(-24.33 -41.62)" fill="url(#linear-gradient-5)"></path><path d="M238.31,96.53c54.09,0,98.7,32.42,105.23,74.31-6.53,41.9-51.18,74.32-105.23,74.32s-98.67-32.42-105.2-74.32C139.64,129,184.22,96.53,238.31,96.53Z" transform="translate(-24.33 -41.62)" fill="#D44927"></path><path d="M324.48,209.75c1-1.07,1.9-2.16,2.81-3.29C326.39,207.58,325.45,208.67,324.48,209.75Zm0,0c1-1.07,1.9-2.16,2.81-3.29C326.39,207.58,325.45,208.67,324.48,209.75Z" transform="translate(-24.33 -41.62)" fill="#D44927"></path><path d="M344.35,181.47c0,28.8-17.9,54.25-45.27,69.61-1.27.72-2.55,1.41-3.86,2.07q-4,2-8.23,3.8a121.08,121.08,0,0,1-13,4.52,129.27,129.27,0,0,1-35.73,4.95c-58.54,0-106-38-106-85a67.58,67.58,0,0,1,.81-10.63c.16,1,.34,2,.55,3q-.3-1.5-.54-3c6.53-41.89,51.11-74.31,105.2-74.31S337,129,343.53,170.84A68.81,68.81,0,0,1,344.35,181.47Z" transform="translate(-24.33 -41.62)" fill="#D44927"></path><path d="M144,176c.08.51.17,1,.25,1.53-.1-.51-.18-1-.26-1.53a67.58,67.58,0,0,0-.81,10.63c0,29.46,18.72,55.41,47.15,70.65-34.44-14-58-42.7-58-75.77a67.58,67.58,0,0,1,.81-10.63c.16,1,.34,2,.55,3q-.3-1.5-.54-3c6.53-41.89,51.11-74.31,105.2-74.31a124.74,124.74,0,0,1,59,14.35,127.13,127.13,0,0,0-48.12-9.23C195.1,101.65,150.52,134.07,144,176Z" transform="translate(-24.33 -41.62)" fill="url(#linear-gradient-6)"></path><circle cx="142.95" cy="159.02" r="47.76" opacity="0.19" fill="url(#linear-gradient-7)" style="isolation: isolate;"></circle><path d="M107,151.48c-17.08-14.6-19.28-41.8,0-43.43s24.17,16.71,24.17,16.71C125.86,128.21,107,151.5,107,151.48Z" transform="translate(-24.33 -41.62)" fill="#D44927"></path><path d="M107,151.64c-17.08-14.6-19.28-41.8,0-43.43s24.17,16.71,24.17,16.71C125.86,128.37,107,151.66,107,151.64Z" transform="translate(-24.33 -41.62)" fill="url(#linear-gradient-8)"></path><path d="M104.58,148.28c-11.9-10.2-13.41-29.15,0-30.29s16.84,11.65,16.84,11.65C117.72,132,104.58,148.26,104.58,148.28Z" transform="translate(-24.33 -41.62)" fill="#D44927"></path><path d="M104.58,148.28c-11.9-10.2-13.41-29.15,0-30.29s16.84,11.65,16.84,11.65C117.72,132,104.58,148.26,104.58,148.28Z" transform="translate(-24.33 -41.62)" fill="url(#linear-gradient-9)"></path><path d="M132.41,171.07c4.1,26.37,23.29,49,50.43,62.12l8.83-10.13,9.22-4.79c-.13.39-.55,17.55.55,21.61a115.34,115.34,0,0,0,36.18,5.5c54.1,0,98.7-32.45,105.23-74.32a68.81,68.81,0,0,1,.82,10.63c0,46.91-47.5,84.95-106,84.95s-106-38-106-84.95A67.39,67.39,0,0,1,132.41,171.07Z" transform="translate(-24.33 -41.62)" fill="url(#linear-gradient-10)"></path><path d="M256.63,142.11a1.25,1.25,0,0,1-.12-.46,1.48,1.48,0,0,1,0-.42Z" transform="translate(-24.33 -41.62)" fill="url(#linear-gradient-11)"></path><path d="M285.17,155.63l-.14-.88a1.39,1.39,0,0,1,.13.44A2.16,2.16,0,0,1,285.17,155.63Z" transform="translate(-24.33 -41.62)" fill="url(#linear-gradient-12)"></path><path d="M291.07,196.13l-.23-1.53a1.61,1.61,0,0,1,.29.76A2,2,0,0,1,291.07,196.13Z" transform="translate(-24.33 -41.62)" fill="url(#linear-gradient-13)"></path><path d="M294,216.34l-.25-1.76a1.79,1.79,0,0,1,.36.85A2,2,0,0,1,294,216.34Z" transform="translate(-24.33 -41.62)" fill="url(#linear-gradient-14)"></path><path d="M297,236.54l-.28-2a1.59,1.59,0,0,1,.42.94A1.84,1.84,0,0,1,297,236.54Z" transform="translate(-24.33 -41.62)" fill="url(#linear-gradient-15)"></path><path d="M300.09,255.61a1.92,1.92,0,0,1-.19,1.13l-.31-2.15A1.71,1.71,0,0,1,300.09,255.61Z" transform="translate(-24.33 -41.62)" fill="url(#linear-gradient-16)"></path><path d="M297,236.54l-.29-1.95L294,216.34l-.26-1.76-2.68-18.45-.23-1.53-2.73-18.72a1.26,1.26,0,0,0,0-.61,1.51,1.51,0,0,0-.2-.62l-2.77-19-.13-.87-2.86-19.59v-.11L280.83,126a1.73,1.73,0,0,0-2-1.43,1.37,1.37,0,0,0-.29.07,2.33,2.33,0,0,0-1.73,2.46l1,7.13-17.58,4.48-1.32-9a1.74,1.74,0,0,0-2-1.44l-.3.08a2.32,2.32,0,0,0-1.72,2.46l1.53,10.44h0l.13.88h0l2.86,19.61L274,261.47A118.65,118.65,0,0,0,287,257l-9.12,2.33L275.5,243l17.59-4.48,2.13,14.61c1.31-.66,2.59-1.35,3.86-2.07Zm-36.12-94,17.6-4.48,2.37,16.27-17.6,4.48Zm2.93,20.11,17.59-4.49,2.38,16.26-17.59,4.47Zm2.93,20.08,17.6-4.47,2.36,16.26L269.07,199Zm2.94,20.11,17.59-4.49,2.37,16.26L272,219.09Zm5.3,36.34-2.38-16.25,17.6-4.48,2.37,16.26Z" transform="translate(-24.33 -41.62)" fill="url(#linear-gradient-17)"></path><path d="M303.08,275.69a2,2,0,0,1-.24,1.21l-.33-2.29A1.69,1.69,0,0,1,303.08,275.69Z" transform="translate(-24.33 -41.62)" fill="url(#linear-gradient-18)"></path><path d="M138,124c38.18,0,69.13,30.17,69.13,67.42a66.33,66.33,0,0,1-18.89,46.32A70,70,0,0,1,75,219.24a65.88,65.88,0,0,1-6.11-27.76C68.91,154.23,99.86,124,138,124Z" transform="translate(-24.33 -41.62)" fill="#D44927"></path><path d="M206.94,186c-6.86-30.2-34.48-52.77-67.5-52.77-38.18,0-69.13,30.19-69.13,67.44,0,1.81.07,3.62.22,5.43a65.71,65.71,0,0,1-1.62-14.59c0-37.25,31-67.43,69.12-67.43C174.31,124.05,204.07,151.29,206.94,186Z" transform="translate(-24.33 -41.62)" fill="url(#linear-gradient-19)"></path><ellipse cx="99.16" cy="136.66" rx="5.02" ry="5.06" fill="#D44927"></ellipse><ellipse cx="66.79" cy="132.45" rx="5.02" ry="5.06" fill="#D44927"></ellipse><ellipse cx="99.16" cy="136.66" rx="5.02" ry="5.06" fill="url(#linear-gradient-20)"></ellipse><ellipse cx="66.79" cy="132.45" rx="5.02" ry="5.06" fill="url(#linear-gradient-21)"></ellipse><path d="M90.51,187c10.49,2,17.73,10.44,16.16,18.9s-11.34,13.71-21.83,11.76a23.15,23.15,0,0,1-6-2l5.35-29A23.92,23.92,0,0,1,90.51,187Z" transform="translate(-24.33 -41.62)" fill="#D44927"></path><path d="M90.51,187c10.49,2,17.73,10.44,16.16,18.9s-11.34,13.71-21.83,11.76a23.15,23.15,0,0,1-6-2l5.35-29A23.92,23.92,0,0,1,90.51,187Z" transform="translate(-24.33 -41.62)" fill="url(#linear-gradient-22)"></path><ellipse cx="81.86" cy="201.21" rx="14.79" ry="7.82" transform="translate(-155.17 203.75) rotate(-79.59)" fill="#D44927"></ellipse><ellipse cx="81.86" cy="201.21" rx="14.79" ry="7.82" transform="translate(-155.17 203.75) rotate(-79.59)" fill="url(#linear-gradient-23)"></ellipse><path d="M84.88,195.53c.55.16.35,2.57-.46,5.4s-1.91,5-2.47,4.81-.34-2.57.46-5.4S84.33,195.37,84.88,195.53Z" transform="translate(-24.33 -41.62)" fill="url(#linear-gradient-24)"></path><path d="M144.23,236.7c38.77-6.54,44.05,1.08,44.05,1.08A70,70,0,0,1,75,219.24L74.93,218S105.47,243.24,144.23,236.7Z" transform="translate(-24.33 -41.62)" fill="url(#linear-gradient-25)"></path><path d="M192.09,167.15c17.09-14.59,19.29-41.79,0-43.42s-24.16,16.71-24.16,16.71C173.24,143.89,192.09,167.18,192.09,167.15Z" transform="translate(-24.33 -41.62)" fill="#D44927"></path><path d="M191.45,167.15c17.08-14.59,19.28-41.79,0-43.42s-24.17,16.71-24.17,16.71C172.59,143.89,191.45,167.18,191.45,167.15Z" transform="translate(-24.33 -41.62)" fill="url(#linear-gradient-26)"></path><path d="M187,161.51c11.9-10.19,13.41-29.14,0-30.28s-16.84,11.64-16.84,11.64C173.87,145.29,187,161.5,187,161.51Z" transform="translate(-24.33 -41.62)" fill="#D44927"></path><path d="M187,161.51c11.9-10.19,13.41-29.14,0-30.28s-16.84,11.64-16.84,11.64C173.87,145.29,187,161.5,187,161.51Z" transform="translate(-24.33 -41.62)" fill="url(#linear-gradient-27)"></path><path d="M243,103.39c22.25-1.26,30.54,2.17,30.54,2.17l14.34,5.71a59,59,0,0,0-9.93-2.15h0c-13.53-1.93-39.29-2.23-68.06,14.91l-4.92-2.2-5-2.21S214.78,105,243,103.39Z" transform="translate(-24.33 -41.62)" fill="#25233a"></path><path d="M243,103.39c22.25-1.26,30.54,2.17,30.54,2.17l14.34,5.71a59,59,0,0,0-9.93-2.15h0L271,106.79s-34.92-4.86-54.09,6.77l-12,8.27L200,119.62S214.78,105,243,103.39Z" transform="translate(-24.33 -41.62)" fill="#D44927"></path><path d="M243,103.39c22.25-1.26,30.54,2.17,30.54,2.17l14.34,5.71a59,59,0,0,0-9.93-2.15h0L271,106.79s-34.92-4.86-54.09,6.77l-12,8.27L200,119.62S214.78,105,243,103.39Z" transform="translate(-24.33 -41.62)" fill="url(#linear-gradient-28)"></path><path d="M200.31,283.85l1.14-45.37,36.86,6.68v38.41a10.41,10.41,0,0,1-.07,1.48h0a15,15,0,0,1-16.32,13.55h-.1l-9.38-.94A13.48,13.48,0,0,1,200.31,283.85Z" transform="translate(-24.33 -41.62)" fill="#D44927"></path><path d="M293.85,273.85l1-41.78h0l.08-3.57,36.86-29.6v74.67a10.76,10.76,0,0,1-.07,1.5h0a15.06,15.06,0,0,1-16.44,13.54l-9.37-.93A13.51,13.51,0,0,1,293.85,273.85Z" transform="translate(-24.33 -41.62)" fill="#D44927"></path><path d="M293.84,273.85l1-41.78h0s3-1.62,5.94,3.57,5.14,52,5.14,52A13.5,13.5,0,0,1,293.84,273.85Z" transform="translate(-24.33 -41.62)" fill="url(#linear-gradient-29)"></path><path d="M200.35,283.87l1.09-44,9.66,1.78,1.34,56A13.48,13.48,0,0,1,200.35,283.87Z" transform="translate(-24.33 -41.62)" fill="url(#linear-gradient-30)"></path><path d="M353.31,169.56a5.17,5.17,0,0,1-4.24-2.44c-2.24-3.32-2.54-8.65-1-12.86-2.32-1.37-5.28-2.62-7.21-1.55-2.22,1.22-2.72,5.26-2.73,6.72a2,2,0,0,1-2,2h0a2,2,0,0,1-2-2c0-.77.13-7.62,4.79-10.21,2.87-1.59,6.59-1.08,11.06,1.54h0c2.59-3.2,6.57-4,10.92-2.29a2,2,0,0,1-1.37,3.76l-.12,0c-2.64-1.06-4.64-.78-6.11.85,5.88,4.7,5.88,9.32,5.54,11.24a6.17,6.17,0,0,1-4.5,5.21A5.05,5.05,0,0,1,353.31,169.56Zm-1.86-12.85c-.71,2.94-.31,6.33.94,8.16.35.53.71.75,1.07.68a2.35,2.35,0,0,0,1.4-2c.14-.87.25-3.55-3.41-6.84Z" transform="translate(-24.33 -41.62)" fill="#D44927"></path><circle cx="244.73" cy="86.54" r="21.56" transform="translate(95.77 272.63) rotate(-80.78)" fill="#f8c244"></circle><circle cx="220.39" cy="44.93" r="18.38" fill="#e8a825"></circle><path d="M245.55,94.41a23,23,0,0,0,6.26,3.73c3.14,1.08,9.14,2.61,9.14,2.61l2.16-2.92Z" transform="translate(-24.33 -41.62)" fill="url(#linear-gradient-31)"></path><path d="M236.14,94.48,238,92.19a8.55,8.55,0,0,1-2.66-3.8l1.77-1.08a7.75,7.75,0,0,0,2.46,3.6c1.62,1.31,3.45,1.26,4.5,0s.75-2.73-.37-4.78c-1.58-2.78-2.16-5-.57-6.95s4-2.22,6.38-.87L251.35,76l1.41,1.14L251,79.32a8,8,0,0,1,2.31,3.18l-1.79,1.07a7.07,7.07,0,0,0-2.23-3.08c-1.75-1.42-3.25-.9-4,0-.95,1.18-.59,2.45.72,4.86,1.56,2.84,1.78,5,.15,7a5.08,5.08,0,0,1-6.7,1l-1.91,2.36Z" transform="translate(-24.33 -41.62)" fill="#f8c244"></path><path d="M252.09,93.82a16.76,16.76,0,0,1-1.84-3c-.49-1.24-.6,1.09-.32,1.79s-4-3-4.22-2.32,2,2.32,2,2.32S245.42,91,245,91.24s2,2.18,2,2.18-2.53-1.34-2.53-1.09a17.25,17.25,0,0,0,2.35,2s-1.44-.42-1.65-.42-.14.5,1.58,1.09l4.4,1.53Z" transform="translate(-24.33 -41.62)" fill="#f9c6d6"></path><line x1="232.85" y1="88.69" x2="281.62" y2="259.74" fill="none" stroke="#fff" stroke-linecap="round" stroke-linejoin="round" stroke-width="4"></line><line x1="254.2" y1="84.98" x2="302.96" y2="256.03" fill="none" stroke="#fff" stroke-linecap="round" stroke-linejoin="round" stroke-width="4"></line><line x1="235.91" y1="99.62" x2="256.8" y2="94.09" fill="none" stroke="#fff" stroke-linecap="round" stroke-linejoin="round" stroke-width="4"></line><line x1="241.71" y1="119.76" x2="262.6" y2="114.22" fill="none" stroke="#fff" stroke-linecap="round" stroke-linejoin="round" stroke-width="4"></line><line x1="247.51" y1="139.89" x2="268.4" y2="134.36" fill="none" stroke="#fff" stroke-linecap="round" stroke-linejoin="round" stroke-width="4"></line><line x1="253.31" y1="160.03" x2="274.2" y2="154.5" fill="none" stroke="#fff" stroke-linecap="round" stroke-linejoin="round" stroke-width="4"></line><line x1="259.11" y1="180.16" x2="279.99" y2="174.63" fill="none" stroke="#fff" stroke-linecap="round" stroke-linejoin="round" stroke-width="4"></line><line x1="264.91" y1="200.3" x2="285.79" y2="194.77" fill="none" stroke="#fff" stroke-linecap="round" stroke-linejoin="round" stroke-width="4"></line><line x1="270.71" y1="220.44" x2="291.59" y2="214.9" fill="none" stroke="#fff" stroke-linecap="round" stroke-linejoin="round" stroke-width="4"></line><line x1="276.51" y1="240.57" x2="297.39" y2="235.04" fill="none" stroke="#fff" stroke-linecap="round" stroke-linejoin="round" stroke-width="4"></line><path d="M271.53,136.11a1.48,1.48,0,0,1-.4,1.18,1.28,1.28,0,0,1-.53.21,5.88,5.88,0,0,1-1.51.1,22.26,22.26,0,0,1-2.82-.4l-1.61-.31a.75.75,0,0,1-.52-.26.56.56,0,0,1,.09-.62,2.22,2.22,0,0,1,1-.67,19.09,19.09,0,0,1,2.95-.94.94.94,0,0,0,.46-.19c.21-.17.25-.47.38-.7a1.2,1.2,0,0,1,1.27-.49c.46.09,1.12.4,1.23.91A9.35,9.35,0,0,1,271.53,136.11Z" transform="translate(-24.33 -41.62)" fill="#f9c6d6"></path><path d="M266.37,134.59a1,1,0,0,1,.92.25c.27.39-.07,1,.24,1.36a1,1,0,0,0,.7.21H270a6.06,6.06,0,0,0,1.41-.11.62.62,0,0,1,.33,0,.39.39,0,0,1,.29.35.85.85,0,0,1-.07.47,3.07,3.07,0,0,1-.48.89.7.7,0,0,1-.22.2.81.81,0,0,1-.31,0h-3.14c-.72-.05-1.45-.16-2.17-.22a9.24,9.24,0,0,1-3.08-.53,1,1,0,0,1-.58-.53.72.72,0,0,1,.13-.66,1.6,1.6,0,0,1,.52-.45,6.61,6.61,0,0,1,1.85-.8A13.6,13.6,0,0,1,266.37,134.59Z" transform="translate(-24.33 -41.62)" fill="#565056"></path><path d="M288.19,153.59v.12c-.06,1.41-1.92,1.44-2.93,1.39a19.15,19.15,0,0,1-2.82-.4l-1.6-.31a.72.72,0,0,1-.53-.26.57.57,0,0,1,.1-.61,2.29,2.29,0,0,1,1-.68c.87-.35,1.75-.59,2.64-.86s.13-1.33,0-1.9a.55.55,0,0,1,0-.36.68.68,0,0,1,.37-.25,4.94,4.94,0,0,1,1.43-.25.49.49,0,0,1,.29.05.46.46,0,0,1,.16.23l1.53,3.26A2.46,2.46,0,0,1,288.19,153.59Z" transform="translate(-24.33 -41.62)" fill="#f9c6d6"></path><path d="M287.51,112.2s1.14,6.42-1.21,11.23a76.55,76.55,0,0,1-4.14,7.54s4.9,5.29,4.9,12a62.9,62.9,0,0,0,.13,7l-2.94,1.49L276.9,131s-.44-2.91,0-3.89S281.12,115,281.12,115Z" transform="translate(-24.33 -41.62)" fill="#473f47"></path><path d="M275.85,81.38a5,5,0,0,1-.45,1.1,1.15,1.15,0,0,0,.51,2,8.7,8.7,0,0,0,.87.26,1.27,1.27,0,0,1,.53.2.81.81,0,0,1,.27.56,4.21,4.21,0,0,1-.33,1.64,2,2,0,0,0,0,1.64c.65,1.07,1.8.26,2.45-.3a4,4,0,0,0,.9-1.24,8.66,8.66,0,0,0,.91-4.82,6.72,6.72,0,0,0-1-3c-.45-.7-1.42-1.85-2.37-1.32-.47.27-.68.85-1.14,1.13s-.79.27-1,.61-.08.86-.13,1.24A1,1,0,0,1,275.85,81.38Z" transform="translate(-24.33 -41.62)" fill="#f9c6d6"></path><path d="M272.29,112.5a60.28,60.28,0,0,0-7.62,1.81,4.46,4.46,0,0,0-2,1,3.88,3.88,0,0,0-.75,1.62,7.85,7.85,0,0,0-.3,3.3c.22,1,6.5,12.55,7,13.33a1,1,0,0,0,.25.29.81.81,0,0,0,.43.11c.71.08,1.78-.59,2.36-.18-.28-2-.16-2.14-.49-3.65s-.8-3-1.07-4.5a16.91,16.91,0,0,0-.44-2.23,5.55,5.55,0,0,0-1.9-2.69l6.57,1.22a21.22,21.22,0,0,0,2.24.33,14.7,14.7,0,0,0,3.38-.11c2.31-.36,4.09-2.3,5.14-4.27a10.19,10.19,0,0,0,1.14-3.44,6.83,6.83,0,0,0,0-1.69,14.27,14.27,0,0,0-.36-1.49c-1.14.82-3,.37-4.33.38a55.15,55.15,0,0,0-5.6.31C274.74,112.13,273.51,112.3,272.29,112.5Z" transform="translate(-24.33 -41.62)" fill="#565056"></path><path d="M279.53,87.41a5.9,5.9,0,0,0-7,4.54,6,6,0,0,0-.1,1.75c.11,2,1.09,3.76,1.63,5.65a25.84,25.84,0,0,1,.67,3.8c.34,2.66.61,5.59-.92,7.79a4.78,4.78,0,0,0-1.11,1.94c-.29,2.18,2.69,2.79,4.2,3.19a39,39,0,0,0,7.57,1.47,19,19,0,0,0,2.82,0,1.94,1.94,0,0,0,.58-.12,1.23,1.23,0,0,0,.52-.49c.88-1.34.35-3.11.36-4.71,0-1.09.29-2.15.34-3.23a13,13,0,0,0-.56-3.34c-.19-.93-.11-1.92-.29-2.87a50.73,50.73,0,0,0-2.09-7.24,25.49,25.49,0,0,0-1.83-4.3,7.57,7.57,0,0,0-3.86-3.56A5.06,5.06,0,0,0,279.53,87.41Z" transform="translate(-24.33 -41.62)" fill="#fff"></path><path d="M278.31,93.82a22.15,22.15,0,0,1-13.19,5.44,32.93,32.93,0,0,1-14.72-2.73l1.69-2.71s10.35.88,12.11.43c2.1-.53,11.46-6.32,11.46-6.32S280.68,87.44,278.31,93.82Z" transform="translate(-24.33 -41.62)" fill="#fff"></path><path d="M282.85,151.85a1,1,0,0,1,.92.25c.27.39-.08,1,.24,1.36a1,1,0,0,0,.7.21h1.79a5.56,5.56,0,0,0,1.41-.11.62.62,0,0,1,.33,0,.39.39,0,0,1,.29.35.85.85,0,0,1-.07.47,3.12,3.12,0,0,1-.48.9.67.67,0,0,1-.22.19.81.81,0,0,1-.31.06c-1.05,0-2.1,0-3.14-.05-.73,0-1.45-.16-2.17-.22a8.76,8.76,0,0,1-3.08-.53,1,1,0,0,1-.58-.53.7.7,0,0,1,.13-.65,1.76,1.76,0,0,1,.52-.46,6.61,6.61,0,0,1,1.85-.8A13.36,13.36,0,0,1,282.85,151.85Z" transform="translate(-24.33 -41.62)" fill="#565056"></path><path d="M277.54,76.25c-.38.32-.63.63-.58.86l1.35,2.11,1.14-.65-.59,1.12,1,1.27.78-.77s-2.5,11.11.17,17.39,2.67,5.44,2.67,5.44,3.54-2.26,5.66-1.22,3.25-2.47,3.25-2.47-3.21-3.63-3.25-11A21.91,21.91,0,0,0,286.74,78a6.1,6.1,0,0,0-8.31-2.35A5.34,5.34,0,0,0,277.54,76.25Z" transform="translate(-24.33 -41.62)" fill="#565056"></path></svg>