<svg id="Layer_1" data-name="Layer 1" xmlns="http://www.w3.org/2000/svg" xmlns:xlink="http://www.w3.org/1999/xlink" viewBox="0 0 548.8 298.43" width="406" height="306" class="illustration styles_illustrationTablet__1DWOa"><defs><linearGradient id="linear-gradient" x1="297.14" y1="9.93" x2="356.54" y2="145.23" gradientUnits="userSpaceOnUse"><stop offset="0" stop-color="#fff" stop-opacity="0"></stop><stop offset="0.95" stop-color="#fff"></stop></linearGradient><linearGradient id="linear-gradient-2" x1="604.12" y1="369.68" x2="679.22" y2="540.73" gradientTransform="translate(-406.85 547.62) rotate(-61.21)" xlink:href="#linear-gradient"></linearGradient><linearGradient id="linear-gradient-3" x1="545.51" y1="296.88" x2="475.3" y2="279.76" xlink:href="#linear-gradient"></linearGradient><linearGradient id="linear-gradient-4" x1="275.22" y1="303.44" x2="288.72" y2="282.22" gradientUnits="userSpaceOnUse"><stop offset="0" stop-color="#010101" stop-opacity="0"></stop><stop offset="0.47" stop-color="#010101" stop-opacity="0.47"></stop><stop offset="0.95" stop-color="#010101"></stop></linearGradient><linearGradient id="linear-gradient-5" x1="287.36" y1="254.87" x2="296.52" y2="254.87" xlink:href="#linear-gradient-4"></linearGradient><linearGradient id="linear-gradient-6" x1="211.91" y1="253.59" x2="221.07" y2="253.59" xlink:href="#linear-gradient-4"></linearGradient><linearGradient id="linear-gradient-7" x1="201.23" y1="305.46" x2="223.74" y2="271.7" xlink:href="#linear-gradient-4"></linearGradient><linearGradient id="linear-gradient-8" x1="163.83" y1="273.58" x2="162.14" y2="267.79" xlink:href="#linear-gradient-4"></linearGradient><linearGradient id="linear-gradient-9" x1="224.92" y1="273.58" x2="223.23" y2="267.79" xlink:href="#linear-gradient-4"></linearGradient><linearGradient id="linear-gradient-10" x1="300.16" y1="273.58" x2="298.47" y2="267.79" xlink:href="#linear-gradient-4"></linearGradient><linearGradient id="linear-gradient-11" x1="88.24" y1="362.11" x2="90.82" y2="260.08" xlink:href="#linear-gradient-4"></linearGradient><linearGradient id="linear-gradient-12" x1="325.43" y1="366.13" x2="328.01" y2="264.1" xlink:href="#linear-gradient-4"></linearGradient><linearGradient id="linear-gradient-13" x1="141.15" y1="213.82" x2="233.75" y2="540.49" xlink:href="#linear-gradient-4"></linearGradient><linearGradient id="linear-gradient-14" x1="136.03" y1="308.02" x2="150.28" y2="276.4" xlink:href="#linear-gradient-4"></linearGradient><linearGradient id="linear-gradient-15" x1="117.95" y1="253.25" x2="108.87" y2="280.69" xlink:href="#linear-gradient-4"></linearGradient><linearGradient id="linear-gradient-16" x1="182.68" y1="253.25" x2="173.61" y2="280.69" xlink:href="#linear-gradient-4"></linearGradient><linearGradient id="linear-gradient-17" x1="254.53" y1="253.25" x2="245.45" y2="280.69" xlink:href="#linear-gradient-4"></linearGradient><linearGradient id="linear-gradient-18" x1="108.94" y1="281.71" x2="95.86" y2="274.85" xlink:href="#linear-gradient-4"></linearGradient><linearGradient id="linear-gradient-19" x1="119.27" y1="282.02" x2="164.39" y2="282.02" xlink:href="#linear-gradient-4"></linearGradient><linearGradient id="linear-gradient-20" x1="219.47" y1="230.95" x2="197.82" y2="322.27" xlink:href="#linear-gradient-4"></linearGradient><linearGradient id="linear-gradient-21" x1="295.92" y1="233.28" x2="230.64" y2="285.37" xlink:href="#linear-gradient-4"></linearGradient><linearGradient id="linear-gradient-22" x1="186.49" y1="280.51" x2="231.61" y2="280.51" xlink:href="#linear-gradient-4"></linearGradient><linearGradient id="linear-gradient-23" x1="258.83" y1="280.51" x2="303.96" y2="280.51" xlink:href="#linear-gradient-4"></linearGradient><linearGradient id="linear-gradient-24" x1="132.29" y1="323.95" x2="149.18" y2="323.95" xlink:href="#linear-gradient-4"></linearGradient><linearGradient id="linear-gradient-25" x1="197.24" y1="323.95" x2="214.13" y2="323.95" xlink:href="#linear-gradient-4"></linearGradient><linearGradient id="linear-gradient-26" x1="271.35" y1="323.95" x2="288.24" y2="323.95" xlink:href="#linear-gradient-4"></linearGradient><linearGradient id="linear-gradient-27" x1="121.4" y1="237.99" x2="130.56" y2="237.99" xlink:href="#linear-gradient-4"></linearGradient><linearGradient id="linear-gradient-28" x1="146.8" y1="254.39" x2="155.96" y2="254.39" xlink:href="#linear-gradient-4"></linearGradient><linearGradient id="linear-gradient-29" x1="186.51" y1="237.19" x2="195.67" y2="237.19" xlink:href="#linear-gradient-4"></linearGradient><linearGradient id="linear-gradient-30" x1="261.96" y1="238.47" x2="271.12" y2="238.47" xlink:href="#linear-gradient-4"></linearGradient><linearGradient id="linear-gradient-31" x1="308.92" y1="177.64" x2="285.77" y2="232.94" xlink:href="#linear-gradient-4"></linearGradient><linearGradient id="linear-gradient-32" x1="343.14" y1="248.54" x2="467.11" y2="240.58" xlink:href="#linear-gradient"></linearGradient><linearGradient id="linear-gradient-33" x1="423.04" y1="228.11" x2="422.35" y2="266.85" xlink:href="#linear-gradient-4"></linearGradient><linearGradient id="linear-gradient-34" x1="424.48" y1="247.88" x2="414.58" y2="315" xlink:href="#linear-gradient-4"></linearGradient><linearGradient id="linear-gradient-35" x1="423.98" y1="242.79" x2="415.16" y2="312.62" xlink:href="#linear-gradient-4"></linearGradient></defs><title>StartUP 3</title><path d="M531.51,336.3c-1.67,1.73-3.39,3.39-5.22,5a76.94,76.94,0,0,1-6.38,5c-19.74,14.34-44.39,21-68.59,24.77-37.63,5.82-75.89,5.44-113.93,5.07q-132.54-1.32-265.09-3c-22.89-.35-50-3.08-61.71-22.42a13.14,13.14,0,0,1-.69-1.16C-13,308.38,38.88,272.36,60.41,247c14-16.41,14.78-39.8,19-60.92,5.88-29.24,20.18-57.47,43.45-76.14s56-26.47,84-16.16c19.49,7.17,36,22.45,56.59,25.43,12.38,1.8,24.86-1.13,37.19-3.33,54.51-9.81,117.57-3,153.87,38.82,13.36,15.38,22.07,34.33,35.65,49.45,15.85,17.61,38.32,30.31,51.68,49a60.92,60.92,0,0,1,8,14.93C558.29,291.47,548.89,318.25,531.51,336.3Z" transform="translate(-4.2 -77.85)" fill="#05668D" opacity="0.24" style="isolation: isolate;"></path><polygon points="372.97 126.28 251.71 40.72 351.73 0 398.64 108.87 372.97 126.28" fill="url(#linear-gradient)"></polygon><polygon points="381.52 201.62 240.81 244.48 222.5 175.84 375.33 165.81 381.52 201.62" fill="url(#linear-gradient-2)"></polygon><path d="M531.51,336.3,472.44,283l.91-31.09,68.5,1.23a60.92,60.92,0,0,1,8,14.93C558.29,291.47,548.89,318.25,531.51,336.3Z" transform="translate(-4.2 -77.85)" fill="url(#linear-gradient-3)"></path><path d="M519.91,346.26c-19.74,14.34-44.39,21-68.59,24.77-37.63,5.82-75.89,5.44-113.93,5.07q-132.54-1.32-265.09-3c-22.89-.35-50-3.08-61.71-22.42l.22,0c11.57-1.66,23.2-2.51,34.83-3.3a3922.94,3922.94,0,0,1,454.65-5.12C507,342.52,514.25,343.15,519.91,346.26Z" transform="translate(-4.2 -77.85)" fill="#05668D" opacity="0.43" style="isolation: isolate;"></path><path d="M39.67,355c1.1,3.7,5.8,4.69,9.65,5q35.46,2.85,71.08,2.6c6.22-.05,12.58-.19,18.38-2.42,3.9-1.5,7.42-3.9,11.41-5.13s8.46-1.22,12.74-1.16l115,1.48a36.09,36.09,0,0,1,8.87.85c3.75,1,7.07,3.15,10.62,4.7,9.07,4,19.36,3.9,29.23,3.18a257.45,257.45,0,0,0,47.82-8,326.53,326.53,0,0,0-35-4c-66.75-4.92-133.75-5-200.68-5.1-18,0-36.1,0-54,2.25C69.42,351.14,54.66,349.62,39.67,355Z" transform="translate(-4.2 -77.85)" fill="#05668D" opacity="0.45" style="isolation: isolate;"></path><polygon points="172.6 189.03 167.67 200.71 171.85 200.71 176.78 189.35 172.6 189.03" fill="#05668D"></polygon><polygon points="243.98 188.86 239.05 200.55 243.23 200.55 248.16 189.19 243.98 188.86" fill="#05668D"></polygon><path d="M300.23,266.92a88.17,88.17,0,0,1-14.33,11.74c-2,1.3-4.17,2.74-4.76,5a8.33,8.33,0,0,0,.61,4.8c3.2,8.88,9.27,16.41,13.62,24.79a1.24,1.24,0,0,1,.2.74,1.22,1.22,0,0,1-.57.7l-2.87,2.12c-7.33-5.55-13-12.95-18.43-20.4-3.72-5.14-7.49-10.74-7.79-17.08a10,10,0,0,1,3.61-8.73,16.61,16.61,0,0,1,6-3.48c3.45-1.12,7.16-1.08,10.79-1,4,.06,8.43.33,11.11,3.27" transform="translate(-4.2 -77.85)" fill="#606161"></path><path d="M300.23,266.92a88.17,88.17,0,0,1-14.33,11.74c-2,1.3-4.17,2.74-4.76,5a8.33,8.33,0,0,0,.61,4.8c3.2,8.88,9.27,16.41,13.62,24.79a1.24,1.24,0,0,1,.2.74,1.22,1.22,0,0,1-.57.7l-2.87,2.12c-7.33-5.55-13-12.95-18.43-20.4-3.72-5.14-7.49-10.74-7.79-17.08a10,10,0,0,1,3.61-8.73,16.61,16.61,0,0,1,6-3.48c3.45-1.12,7.16-1.08,10.79-1,4,.06,8.43.33,11.11,3.27" transform="translate(-4.2 -77.85)" fill="url(#linear-gradient-4)"></path><path d="M292.65,320.57a4.88,4.88,0,0,1,.09,1.74A5.3,5.3,0,0,1,292,324a34.75,34.75,0,0,0-2.26,4.73,1.77,1.77,0,0,0-.14,1.29c.28.68,1.22.74,1.95.62a12.28,12.28,0,0,0,5.83-2.62,2.63,2.63,0,0,0,.79-.9,2.85,2.85,0,0,0,.22-1.13,14.18,14.18,0,0,0-3-9.2,1.91,1.91,0,0,0-.77-.67c-.81-.32-2,.51-2.31,1.27S292.49,319.66,292.65,320.57Z" transform="translate(-4.2 -77.85)" fill="#606161"></path><path d="M293.64,333.9s-7.18-8.8-7.88-8.72-1.61,1.35-1.61,1.35l8.17,7.69Z" transform="translate(-4.2 -77.85)" fill="#606161"></path><polygon points="287.36 254.43 288.73 258.53 296.52 254.91 295.4 251.21 287.36 254.43" fill="#05668D"></polygon><polygon points="287.36 254.43 288.73 258.53 296.52 254.91 295.4 251.21 287.36 254.43" fill="url(#linear-gradient-5)"></polygon><path d="M218.19,332.62s-7.18-8.8-7.88-8.72-1.61,1.34-1.61,1.34l8.16,7.69Z" transform="translate(-4.2 -77.85)" fill="#606161"></path><polygon points="211.91 253.14 213.28 257.24 221.07 253.63 219.95 249.93 211.91 253.14" fill="#05668D"></polygon><polygon points="211.91 253.14 213.28 257.24 221.07 253.63 219.95 249.93 211.91 253.14" fill="url(#linear-gradient-6)"></polygon><path d="M153.08,333.42s-7.18-8.8-7.88-8.72-1.61,1.35-1.61,1.35l8.16,7.69Z" transform="translate(-4.2 -77.85)" fill="#606161"></path><path d="M227.88,266.92a87.33,87.33,0,0,1-14.33,11.74c-2,1.3-4.17,2.74-4.76,5a8.25,8.25,0,0,0,.62,4.8c3.2,8.88,9.27,16.41,13.62,24.79a1.16,1.16,0,0,1,.19.74,1.24,1.24,0,0,1-.56.7l-2.87,2.12c-7.34-5.55-13-12.95-18.43-20.4-3.73-5.14-7.49-10.74-7.8-17.08a10,10,0,0,1,3.62-8.73,16.45,16.45,0,0,1,6-3.48c3.45-1.12,7.15-1.08,10.78-1,4,.06,8.44.33,11.11,3.27" transform="translate(-4.2 -77.85)" fill="#606161"></path><path d="M227.88,266.92a87.33,87.33,0,0,1-14.33,11.74c-2,1.3-4.17,2.74-4.76,5a8.25,8.25,0,0,0,.62,4.8c3.2,8.88,9.27,16.41,13.62,24.79a1.16,1.16,0,0,1,.19.74,1.24,1.24,0,0,1-.56.7l-2.87,2.12c-7.34-5.55-13-12.95-18.43-20.4-3.73-5.14-7.49-10.74-7.8-17.08a10,10,0,0,1,3.62-8.73,16.45,16.45,0,0,1,6-3.48c3.45-1.12,7.15-1.08,10.78-1,4,.06,8.44.33,11.11,3.27" transform="translate(-4.2 -77.85)" fill="url(#linear-gradient-7)"></path><path d="M220.63,319.5a4.88,4.88,0,0,1,.09,1.74,5.52,5.52,0,0,1-.73,1.65,34.19,34.19,0,0,0-2.26,4.73,1.76,1.76,0,0,0-.15,1.28c.29.69,1.23.75,2,.63a12.28,12.28,0,0,0,5.83-2.62,2.63,2.63,0,0,0,.79-.9,2.71,2.71,0,0,0,.21-1.13,14.17,14.17,0,0,0-3-9.2,2,2,0,0,0-.78-.68c-.81-.32-2,.52-2.3,1.28S220.47,318.59,220.63,319.5Z" transform="translate(-4.2 -77.85)" fill="#606161"></path><path d="M160.72,272.76l-1.89,5.38s1.41,1.21,2.25.73,3-6,3-6Z" transform="translate(-4.2 -77.85)" fill="#05668D"></path><path d="M156.21,269.29c-.8.33-1.69.81-1.85,1.66a2,2,0,0,0,.91,1.88c1.46,1.12,3.48,1,5.32.87,1.41-.08,2.82-.08,4.23,0a16.57,16.57,0,0,0,3.15,0,4.5,4.5,0,0,0,2.76-1.37,3.48,3.48,0,0,0,.28-4c-.94-1.5-2.91-1.91-4.56-1.7a38.41,38.41,0,0,0-6.59,1.45C158.63,268.36,157.41,268.8,156.21,269.29Z" transform="translate(-4.2 -77.85)" fill="#606161"></path><path d="M156.21,269.29c-.8.33-1.69.81-1.85,1.66a2,2,0,0,0,.91,1.88c1.46,1.12,3.48,1,5.32.87,1.41-.08,2.82-.08,4.23,0a16.57,16.57,0,0,0,3.15,0,4.5,4.5,0,0,0,2.76-1.37,3.48,3.48,0,0,0,.28-4c-.94-1.5-2.91-1.91-4.56-1.7a38.41,38.41,0,0,0-6.59,1.45C158.63,268.36,157.41,268.8,156.21,269.29Z" transform="translate(-4.2 -77.85)" fill="url(#linear-gradient-8)"></path><path d="M221.81,272.76l-1.89,5.38s1.41,1.21,2.26.73,3-6,3-6Z" transform="translate(-4.2 -77.85)" fill="#05668D"></path><path d="M217.3,269.29c-.8.33-1.69.81-1.85,1.66a2,2,0,0,0,.91,1.88c1.46,1.12,3.48,1,5.32.87,1.41-.08,2.82-.08,4.23,0a16.57,16.57,0,0,0,3.15,0,4.5,4.5,0,0,0,2.76-1.37,3.48,3.48,0,0,0,.28-4c-.94-1.5-2.91-1.91-4.55-1.7A38.31,38.31,0,0,0,221,268C219.72,268.36,218.5,268.8,217.3,269.29Z" transform="translate(-4.2 -77.85)" fill="#606161"></path><path d="M217.3,269.29c-.8.33-1.69.81-1.85,1.66a2,2,0,0,0,.91,1.88c1.46,1.12,3.48,1,5.32.87,1.41-.08,2.82-.08,4.23,0a16.57,16.57,0,0,0,3.15,0,4.5,4.5,0,0,0,2.76-1.37,3.48,3.48,0,0,0,.28-4c-.94-1.5-2.91-1.91-4.55-1.7A38.31,38.31,0,0,0,221,268C219.72,268.36,218.5,268.8,217.3,269.29Z" transform="translate(-4.2 -77.85)" fill="url(#linear-gradient-9)"></path><path d="M297.05,272.76l-1.89,5.38s1.41,1.21,2.25.73,3-6,3-6Z" transform="translate(-4.2 -77.85)" fill="#05668D"></path><path d="M292.54,269.29c-.8.33-1.69.81-1.85,1.66a2,2,0,0,0,.9,1.88c1.47,1.12,3.49,1,5.33.87,1.41-.08,2.82-.08,4.23,0a16.57,16.57,0,0,0,3.15,0,4.5,4.5,0,0,0,2.76-1.37,3.48,3.48,0,0,0,.28-4c-.94-1.5-2.91-1.91-4.56-1.7a38.41,38.41,0,0,0-6.59,1.45C295,268.36,293.74,268.8,292.54,269.29Z" transform="translate(-4.2 -77.85)" fill="#606161"></path><path d="M292.54,269.29c-.8.33-1.69.81-1.85,1.66a2,2,0,0,0,.9,1.88c1.47,1.12,3.49,1,5.33.87,1.41-.08,2.82-.08,4.23,0a16.57,16.57,0,0,0,3.15,0,4.5,4.5,0,0,0,2.76-1.37,3.48,3.48,0,0,0,.28-4c-.94-1.5-2.91-1.91-4.56-1.7a38.41,38.41,0,0,0-6.59,1.45C295,268.36,293.74,268.8,292.54,269.29Z" transform="translate(-4.2 -77.85)" fill="url(#linear-gradient-10)"></path><path d="M89.24,355.49A32.73,32.73,0,1,1,122,322.77,32.76,32.76,0,0,1,89.24,355.49Zm0-60.88a28.16,28.16,0,1,0,28.15,28.16A28.2,28.2,0,0,0,89.24,294.61Z" transform="translate(-4.2 -77.85)" fill="#606161"></path><path d="M326.52,355.49a32.73,32.73,0,1,1,32.73-32.72A32.76,32.76,0,0,1,326.52,355.49Zm0-60.88a28.16,28.16,0,1,0,28.16,28.16A28.19,28.19,0,0,0,326.52,294.61Z" transform="translate(-4.2 -77.85)" fill="#606161"></path><path d="M89.24,355.49A32.73,32.73,0,1,1,122,322.77,32.76,32.76,0,0,1,89.24,355.49Zm0-60.88a28.16,28.16,0,1,0,28.15,28.16A28.2,28.2,0,0,0,89.24,294.61Z" transform="translate(-4.2 -77.85)" fill="url(#linear-gradient-11)"></path><path d="M326.52,355.49a32.73,32.73,0,1,1,32.73-32.72A32.76,32.76,0,0,1,326.52,355.49Zm0-60.88a28.16,28.16,0,1,0,28.16,28.16A28.19,28.19,0,0,0,326.52,294.61Z" transform="translate(-4.2 -77.85)" fill="url(#linear-gradient-12)"></path><path d="M126.56,236c-3.8,3.81-9.35,5.1-14.24,7.34-1.91.88-3.88,2.07-4.67,4a7.72,7.72,0,0,0-.43,3,1.6,1.6,0,0,0,1.8,2,50.93,50.93,0,0,0,15.61-2.24c5.55-1.7,11-4.54,14.34-9.3a9.84,9.84,0,0,0,1.59-3.29,13.31,13.31,0,0,0,.18-3.73,34.25,34.25,0,0,0-.84-7.36c-.48-1.79-1.49-4.67-3.18-5.69s-3.09,2.76-3.73,4C131.08,228.66,129.65,232.9,126.56,236Z" transform="translate(-4.2 -77.85)" fill="#05668D"></path><path d="M145.62,210.11s.09,3.83,0,6.63c0,2.09-.75,6.1-5.2,6.1s-5-5.11-4.89-6.1a28,28,0,0,1,0-4.45C135.87,209.85,145.38,208.41,145.62,210.11Z" transform="translate(-4.2 -77.85)" fill="#f0cac5"></path><path d="M145.69,216.39a1.38,1.38,0,0,1,1.75.64c.67,1.12.71,3.36,0,6.42a11.69,11.69,0,0,1-1.31,3.84s-2.91-4.12-5-4.29C141.17,223,145.21,222.21,145.69,216.39Z" transform="translate(-4.2 -77.85)" fill="#f1fcff"></path><path d="M132.18,196.6s1.11,3.41.08,5c-3.82,6-1.64,5.38-.22,5.51.18,0-.07,1.16.44,3.36.41,1.74-.81,5.69,4.54,4,1.53-.47,8.95-2.56,9.48-7.16.66-5.75,4.19-13-2.77-15.46C135.39,189,132.67,191.26,132.18,196.6Z" transform="translate(-4.2 -77.85)" fill="#f0cac5"></path><path d="M136,188.61s-3.82.27-5.13,1.72c-1.61,1.79-1.9,3.77-.21,5.37s6.12.08,9.21,2-.2,6.82,1.34,7.87.62-2.11,2.66-2.91,2.87,2.63.73,5.16-.13,4.15,1.26,4.57,4.76-11,4.48-15.18S148,193.1,148,193.1,147.91,186.57,136,188.61Z" transform="translate(-4.2 -77.85)" fill="#606161"></path><path d="M135.47,214.89s5.43-2,7.88-3.13c0,0-5.1,4.85-7.74,4.82Z" transform="translate(-4.2 -77.85)" fill="#e3b3af"></path><path d="M132.12,207.47s4,.29,6.31-1.16,3.43-2.36,3.7-.89,1.31,3.94.27,5.69-6.56,5.82-8,4.76-2.4-2.34-2.15-3.82A21.67,21.67,0,0,0,132.12,207.47Z" transform="translate(-4.2 -77.85)" fill="#606161"></path><path d="M132.85,209.37s.77.92,2.62,0,2.12-2.35,3-.92-1.13,4.26-3.49,4.34S133,211.25,132.85,209.37Z" transform="translate(-4.2 -77.85)" fill="#f0cac5"></path><path d="M141.87,218.19a6.19,6.19,0,0,1-1.31,2.5c-1,1.06-2.61,1.35-3.8,2.21-3.52,2.57-1.34,8.66-.73,12.13a111.56,111.56,0,0,1,2,14.55c.11,2.87,0,5.81.89,8.53a13.43,13.43,0,0,0,7.35,7.76A18.91,18.91,0,0,0,157,267a11.88,11.88,0,0,0,6.82-3.2,11.47,11.47,0,0,0,2.67-7c.53-6.65-2.07-13.11-4.61-19.28-3.25-7.87-6.57-16.6-13.49-22-1.15-.89-2.66-1.66-4-1.14a4.4,4.4,0,0,0-2.24,2.91C142.06,217.59,142,217.89,141.87,218.19Z" transform="translate(-4.2 -77.85)" fill="#05668D"></path><path d="M141.87,218.19a6.19,6.19,0,0,1-1.31,2.5c-1,1.06-2.61,1.35-3.8,2.21-3.52,2.57-1.34,8.66-.73,12.13a111.56,111.56,0,0,1,2,14.55c.11,2.87,0,5.81.89,8.53a13.43,13.43,0,0,0,7.35,7.76A18.91,18.91,0,0,0,157,267a11.88,11.88,0,0,0,6.82-3.2,11.47,11.47,0,0,0,2.67-7c.53-6.65-2.07-13.11-4.61-19.28-3.25-7.87-6.57-16.6-13.49-22-1.15-.89-2.66-1.66-4-1.14a4.4,4.4,0,0,0-2.24,2.91C142.06,217.59,142,217.89,141.87,218.19Z" transform="translate(-4.2 -77.85)" fill="url(#linear-gradient-13)"></path><path d="M160.66,268.44a87.84,87.84,0,0,1-14.33,11.74c-2,1.3-4.17,2.73-4.76,5a8.24,8.24,0,0,0,.62,4.8c3.2,8.89,9.27,16.42,13.62,24.8a1.16,1.16,0,0,1,.19.74,1.24,1.24,0,0,1-.56.7l-2.87,2.12c-7.34-5.55-13-12.95-18.43-20.4-3.73-5.14-7.49-10.74-7.8-17.09a10,10,0,0,1,3.62-8.73,16.57,16.57,0,0,1,6-3.47c3.45-1.12,7.15-1.08,10.78-1,4,.06,8.44.32,11.11,3.27" transform="translate(-4.2 -77.85)" fill="#606161"></path><path d="M160.66,268.44a87.84,87.84,0,0,1-14.33,11.74c-2,1.3-4.17,2.73-4.76,5a8.24,8.24,0,0,0,.62,4.8c3.2,8.89,9.27,16.42,13.62,24.8a1.16,1.16,0,0,1,.19.74,1.24,1.24,0,0,1-.56.7l-2.87,2.12c-7.34-5.55-13-12.95-18.43-20.4-3.73-5.14-7.49-10.74-7.8-17.09a10,10,0,0,1,3.62-8.73,16.57,16.57,0,0,1,6-3.47c3.45-1.12,7.15-1.08,10.78-1,4,.06,8.44.32,11.11,3.27" transform="translate(-4.2 -77.85)" fill="url(#linear-gradient-14)"></path><path d="M153.4,321a4.64,4.64,0,0,1,.1,1.74,5.35,5.35,0,0,1-.73,1.64,35.56,35.56,0,0,0-2.27,4.74,1.75,1.75,0,0,0-.14,1.28c.29.69,1.23.75,2,.63a12.38,12.38,0,0,0,5.83-2.62,3,3,0,0,0,.79-.9,2.71,2.71,0,0,0,.21-1.13,14.17,14.17,0,0,0-3-9.2,1.9,1.9,0,0,0-.78-.68c-.81-.32-2,.52-2.3,1.27C152.7,318.7,153.25,320.1,153.4,321Z" transform="translate(-4.2 -77.85)" fill="#606161"></path><path d="M103.56,253.35a7.06,7.06,0,0,0,.59,5.56,3.45,3.45,0,0,0,1,1.14,4.54,4.54,0,0,0,3,.42.88.88,0,0,0,.61-.22.68.68,0,0,0,.15-.37c.2-1.07-.35-2.2-.07-3.25.36-1.33,1.9-2.07,2.31-3.38.55-1.81-1.49-4.26-3.35-4.23S104.07,251.72,103.56,253.35Z" transform="translate(-4.2 -77.85)" fill="#f0cac5"></path><path d="M90.73,324.14a2.27,2.27,0,0,1-2.08-3.21L112.23,268a2.28,2.28,0,1,1,4.17,1.85l-23.58,53A2.28,2.28,0,0,1,90.73,324.14Z" transform="translate(-4.2 -77.85)" fill="#05668D"></path><path d="M140.58,326.83l-33.89-42.24a2.28,2.28,0,0,1,3.56-2.85l29.24,36.43,18.4-40.56a2.28,2.28,0,0,1,4.16,1.89Z" transform="translate(-4.2 -77.85)" fill="#05668D"></path><path d="M140.71,326.12a2.28,2.28,0,1,1,0-4.56l61.82-.06,15.32-43.07a2.26,2.26,0,0,1,2.92-1.38,2.29,2.29,0,0,1,1.38,2.92l-16.4,46.1-65,.05Z" transform="translate(-4.2 -77.85)" fill="#05668D"></path><path d="M204.61,326.12a2.28,2.28,0,1,1,0-4.56l75.08-.06L295,278.43a2.26,2.26,0,0,1,2.91-1.38,2.29,2.29,0,0,1,1.39,2.92l-16.4,46.1-65,.05Z" transform="translate(-4.2 -77.85)" fill="#05668D"></path><path d="M220.2,281.48l-110.4-.85a2.29,2.29,0,0,1,0-4.57h0l113,.87Z" transform="translate(-4.2 -77.85)" fill="#05668D"></path><path d="M280,326.93a2.29,2.29,0,0,1-.07-4.57l39.51-1.27-23.37-38.76-110.4-.84a2.29,2.29,0,0,1,0-4.57h0l113,.86,28.72,47.63-47.3,1.52Z" transform="translate(-4.2 -77.85)" fill="#05668D"></path><path d="M119.6,268l-11-1L109,260l-3-2a2.19,2.19,0,0,1-.59-3.09,2.31,2.31,0,0,1,3.17-.58l5.13,3.42-.27,5.28,3.35.29L119,258.4l6.28-.91a2.28,2.28,0,0,1,2.6,1.87,2.24,2.24,0,0,1-1.92,2.53l-3.8.55Z" transform="translate(-4.2 -77.85)" fill="#05668D"></path><path d="M119.6,268l-11-1L109,260l-3-2a2.19,2.19,0,0,1-.59-3.09,2.31,2.31,0,0,1,3.17-.58l5.13,3.42-.27,5.28,3.35.29L119,258.4l6.28-.91a2.28,2.28,0,0,1,2.6,1.87,2.24,2.24,0,0,1-1.92,2.53l-3.8.55Z" transform="translate(-4.2 -77.85)" fill="url(#linear-gradient-15)"></path><path d="M184.34,268l-11-1,.37-7.06-3-2a2.19,2.19,0,0,1-.6-3.09,2.32,2.32,0,0,1,3.18-.58l5.13,3.42-.28,5.28,3.36.29,2.2-4.89,6.29-.91a2.26,2.26,0,0,1,2.59,1.87,2.23,2.23,0,0,1-1.92,2.53l-3.79.55Z" transform="translate(-4.2 -77.85)" fill="#05668D"></path><path d="M184.34,268l-11-1,.37-7.06-3-2a2.19,2.19,0,0,1-.6-3.09,2.32,2.32,0,0,1,3.18-.58l5.13,3.42-.28,5.28,3.36.29,2.2-4.89,6.29-.91a2.26,2.26,0,0,1,2.59,1.87,2.23,2.23,0,0,1-1.92,2.53l-3.79.55Z" transform="translate(-4.2 -77.85)" fill="url(#linear-gradient-16)"></path><path d="M256.18,268l-11-1,.37-7.06-3-2a2.19,2.19,0,0,1-.59-3.09,2.31,2.31,0,0,1,3.17-.58l5.13,3.42L250,263l3.35.29,2.21-4.89,6.28-.91a2.28,2.28,0,0,1,2.6,1.87,2.24,2.24,0,0,1-1.92,2.53l-3.8.55Z" transform="translate(-4.2 -77.85)" fill="#05668D"></path><path d="M256.18,268l-11-1,.37-7.06-3-2a2.19,2.19,0,0,1-.59-3.09,2.31,2.31,0,0,1,3.17-.58l5.13,3.42L250,263l3.35.29,2.21-4.89,6.28-.91a2.28,2.28,0,0,1,2.6,1.87,2.24,2.24,0,0,1-1.92,2.53l-3.8.55Z" transform="translate(-4.2 -77.85)" fill="url(#linear-gradient-17)"></path><path d="M105.33,289.4c-.11,0-3.65-.77-3.76-.79-.44-.09-.68-.44-.52-.77l7.22-15.15a1,1,0,0,1,1.08-.43c.44.1,4.09,1.22,3.93,1.55L106.07,289A.91.91,0,0,1,105.33,289.4Z" transform="translate(-4.2 -77.85)" fill="#05668D"></path><path d="M104.79,288.86c-.11,0-3.65-.77-3.77-.79-.44-.1-.67-.44-.51-.77l7.21-15.15a1,1,0,0,1,1.09-.43c.44.09,4.09,1.22,3.93,1.55l-7.22,15.15A.89.89,0,0,1,104.79,288.86Z" transform="translate(-4.2 -77.85)" fill="url(#linear-gradient-18)"></path><path d="M146.64,221.34c-2.13,1.26-3.27,3.68-4.09,6-1.83,5.23-2.71,10.87-5.62,15.58a20.56,20.56,0,0,1-6.62,6.63c-1.71,1.07-3.63,1.92-5,3.42s-2,4-.65,5.52,3.58,1.43,5.47.94c8.09-2.1,13.8-9.19,18.35-16.2a36.55,36.55,0,0,0,4.86-9.69C154.5,229.53,154,217,146.64,221.34Z" transform="translate(-4.2 -77.85)" fill="#05668D"></path><path d="M120.93,258a6.94,6.94,0,0,0-2,3.2,4.18,4.18,0,0,0,.64,3.63,3,3,0,0,0,3.42,1,5.63,5.63,0,0,0,1.17-.77l3.66-2.93a4.79,4.79,0,0,0,1.21-1.25c.87-1.53-.31-4.75-2-5.41C125.1,254.69,122.23,256.75,120.93,258Z" transform="translate(-4.2 -77.85)" fill="#f0cac5"></path><path d="M124.73,268.7a11.56,11.56,0,0,0-3.36,2.22,9.11,9.11,0,0,0-2.1,6.57,31.93,31.93,0,0,0,2,9l5.37,16.33a3.84,3.84,0,0,0,.44,1c1.06,1.61,3.81.91,4.76-.77s.66-3.75.41-5.66a102.7,102.7,0,0,1-.8-17.79,1.69,1.69,0,0,1,.35-1.19,1.72,1.72,0,0,1,1-.36c4.63-.47,9.3.06,13.94-.08s9.49-1,13.14-3.9,5.67-8.2,3.63-12.38a4.22,4.22,0,0,0-1.81-2,5.77,5.77,0,0,0-2.78-.34c-5.44.25-10.55.28-15.77,1.93-3.17,1-6.3,2.09-9.39,3.33C131.49,265.53,127.14,268.7,124.73,268.7Z" transform="translate(-4.2 -77.85)" fill="#606161"></path><path d="M124.73,268.7a11.56,11.56,0,0,0-3.36,2.22,9.11,9.11,0,0,0-2.1,6.57,31.93,31.93,0,0,0,2,9l5.37,16.33a3.84,3.84,0,0,0,.44,1c1.06,1.61,3.81.91,4.76-.77s.66-3.75.41-5.66a102.7,102.7,0,0,1-.8-17.79,1.69,1.69,0,0,1,.35-1.19,1.72,1.72,0,0,1,1-.36c4.63-.47,9.3.06,13.94-.08s9.49-1,13.14-3.9,5.67-8.2,3.63-12.38a4.22,4.22,0,0,0-1.81-2,5.77,5.77,0,0,0-2.78-.34c-5.44.25-10.55.28-15.77,1.93-3.17,1-6.3,2.09-9.39,3.33C131.49,265.53,127.14,268.7,124.73,268.7Z" transform="translate(-4.2 -77.85)" fill="url(#linear-gradient-19)"></path><path d="M129.07,307.86a3.59,3.59,0,0,1-.81,1.2,17.71,17.71,0,0,1-3.41,2.88,4.92,4.92,0,0,0-1.53,1.29,2.11,2.11,0,0,0-.29,1.6,1.33,1.33,0,0,0,.53.86,1.9,1.9,0,0,0,1.37.1,26.27,26.27,0,0,0,7-2.53,7.73,7.73,0,0,0,1.08-.62,5,5,0,0,0,1.95-4.89,3.15,3.15,0,0,0-.25-.77,4.83,4.83,0,0,0-.53-.8,16.33,16.33,0,0,0-2.15-2.67.49.49,0,0,0-.23-.14.57.57,0,0,0-.31.1c-.45.26-.89.54-1.32.83s-.79.42-1,.75C128.83,305.84,129.37,307,129.07,307.86Z" transform="translate(-4.2 -77.85)" fill="#606161"></path><path d="M193.78,234.49c-3.8,3.8-9.35,5.09-14.23,7.34-1.92.88-3.89,2.06-4.68,4a7.53,7.53,0,0,0-.42,3,2.07,2.07,0,0,0,.7,1.8,2.13,2.13,0,0,0,1.09.21,51,51,0,0,0,15.62-2.24c5.54-1.7,11-4.54,14.33-9.3a9.84,9.84,0,0,0,1.59-3.29,13.29,13.29,0,0,0,.18-3.73,34.25,34.25,0,0,0-.84-7.36c-.48-1.78-1.49-4.67-3.18-5.69s-3.09,2.76-3.73,4C198.3,227.14,196.87,231.39,193.78,234.49Z" transform="translate(-4.2 -77.85)" fill="#05668D"></path><path d="M203.53,214.84c-1.85,3.16-1.84,7.06-1.46,10.7.77,7.55,2.86,15,3.16,22.53.11,2.86,0,5.8.89,8.52a13.43,13.43,0,0,0,7.35,7.76,18.91,18.91,0,0,0,10.78,1.14,11.93,11.93,0,0,0,6.82-3.19,11.5,11.5,0,0,0,2.67-7c.53-6.65-2.06-13.11-4.61-19.27-2.73-6.61-5.55-13.37-10.07-19-1.93-2.4-4.25-5.28-7.37-5.94A7.77,7.77,0,0,0,203.53,214.84Z" transform="translate(-4.2 -77.85)" fill="#05668D"></path><path d="M203.53,214.84c-1.85,3.16-1.84,7.06-1.46,10.7.77,7.55,2.86,15,3.16,22.53.11,2.86,0,5.8.89,8.52a13.43,13.43,0,0,0,7.35,7.76,18.91,18.91,0,0,0,10.78,1.14,11.93,11.93,0,0,0,6.82-3.19,11.5,11.5,0,0,0,2.67-7c.53-6.65-2.06-13.11-4.61-19.27-2.73-6.61-5.55-13.37-10.07-19-1.93-2.4-4.25-5.28-7.37-5.94A7.77,7.77,0,0,0,203.53,214.84Z" transform="translate(-4.2 -77.85)" fill="url(#linear-gradient-20)"></path><path d="M188.15,256.48a7,7,0,0,0-2,3.19,4.18,4.18,0,0,0,.64,3.63,3,3,0,0,0,3.42,1,5.26,5.26,0,0,0,1.17-.77l3.66-2.93a4.79,4.79,0,0,0,1.21-1.25c.87-1.53-.31-4.74-2-5.41C192.32,253.17,189.45,255.24,188.15,256.48Z" transform="translate(-4.2 -77.85)" fill="#f0cac5"></path><path d="M169.68,250.63a7,7,0,0,0,.6,5.56,3.42,3.42,0,0,0,1,1.14,4.56,4.56,0,0,0,3,.42.86.86,0,0,0,.6-.22.78.78,0,0,0,.16-.37c.19-1.07-.36-2.2-.07-3.25.35-1.33,1.9-2.07,2.3-3.39.55-1.8-1.49-4.25-3.35-4.22S170.2,249,169.68,250.63Z" transform="translate(-4.2 -77.85)" fill="#f0cac5"></path><path d="M192,267.18a11.76,11.76,0,0,0-3.36,2.22,9.14,9.14,0,0,0-2.1,6.58,31.78,31.78,0,0,0,2,9l5.37,16.33a4.44,4.44,0,0,0,.44,1c1.06,1.6,3.81.9,4.76-.78s.66-3.75.41-5.66a102.7,102.7,0,0,1-.8-17.79,1.7,1.7,0,0,1,.35-1.19,1.66,1.66,0,0,1,1-.35c4.62-.48,9.29.05,13.93-.08s9.49-1,13.14-3.91,5.67-8.2,3.63-12.38a4.15,4.15,0,0,0-1.81-2,5.65,5.65,0,0,0-2.78-.35c-5.44.25-10.55.29-15.76,1.93-3.18,1-6.31,2.09-9.4,3.33C198.71,264,194.36,267.18,192,267.18Z" transform="translate(-4.2 -77.85)" fill="#606161"></path><path d="M266.12,234.49c-3.8,3.8-9.35,5.09-14.23,7.34-1.91.88-3.88,2.06-4.67,4a7.37,7.37,0,0,0-.43,3,2.07,2.07,0,0,0,.71,1.8,2.09,2.09,0,0,0,1.08.21,51,51,0,0,0,15.62-2.24c5.55-1.7,11-4.54,14.34-9.3a9.81,9.81,0,0,0,1.58-3.29,13.68,13.68,0,0,0,.19-3.73,34.26,34.26,0,0,0-.85-7.36c-.47-1.78-1.48-4.67-3.18-5.69s-3.09,2.76-3.72,4C270.64,227.14,269.21,231.39,266.12,234.49Z" transform="translate(-4.2 -77.85)" fill="#05668D"></path><path d="M275.88,214.84c-1.86,3.16-1.84,7.06-1.47,10.7.78,7.55,2.86,15,3.16,22.53.12,2.86,0,5.8.89,8.52a13.46,13.46,0,0,0,7.35,7.76,18.94,18.94,0,0,0,10.79,1.14,12,12,0,0,0,6.82-3.19,11.56,11.56,0,0,0,2.67-7c.52-6.65-2.07-13.11-4.62-19.27-2.72-6.61-5.55-13.37-10.06-19-1.94-2.4-4.25-5.28-7.38-5.94A7.75,7.75,0,0,0,275.88,214.84Z" transform="translate(-4.2 -77.85)" fill="#05668D"></path><path d="M275.88,214.84c-1.86,3.16-1.84,7.06-1.47,10.7.78,7.55,2.86,15,3.16,22.53.12,2.86,0,5.8.89,8.52a13.46,13.46,0,0,0,7.35,7.76,18.94,18.94,0,0,0,10.79,1.14,12,12,0,0,0,6.82-3.19,11.56,11.56,0,0,0,2.67-7c.52-6.65-2.07-13.11-4.62-19.27-2.72-6.61-5.55-13.37-10.06-19-1.94-2.4-4.25-5.28-7.38-5.94A7.75,7.75,0,0,0,275.88,214.84Z" transform="translate(-4.2 -77.85)" fill="url(#linear-gradient-21)"></path><path d="M286.21,219.83c-2.13,1.25-3.28,3.67-4.09,6-1.83,5.22-2.71,10.87-5.63,15.58a20.72,20.72,0,0,1-6.61,6.63c-1.72,1.07-3.63,1.91-5,3.41s-1.95,4-.65,5.52,3.58,1.44,5.47.95c8.09-2.1,13.8-9.19,18.35-16.2a36.46,36.46,0,0,0,4.86-9.7C294.06,228,293.57,215.5,286.21,219.83Z" transform="translate(-4.2 -77.85)" fill="#05668D"></path><path d="M260.5,256.48a7.06,7.06,0,0,0-2,3.19,4.18,4.18,0,0,0,.65,3.63,3,3,0,0,0,3.42,1,5,5,0,0,0,1.16-.77l3.66-2.93a4.64,4.64,0,0,0,1.21-1.25c.88-1.53-.31-4.74-2-5.41C264.67,253.17,261.79,255.24,260.5,256.48Z" transform="translate(-4.2 -77.85)" fill="#c8a59c"></path><path d="M242,250.63a7.1,7.1,0,0,0,.6,5.56,3.45,3.45,0,0,0,1,1.14,4.54,4.54,0,0,0,3,.42.88.88,0,0,0,.61-.22.68.68,0,0,0,.15-.37c.2-1.07-.35-2.2-.07-3.25.36-1.33,1.9-2.07,2.3-3.39.56-1.8-1.48-4.25-3.34-4.22S242.54,249,242,250.63Z" transform="translate(-4.2 -77.85)" fill="#c8a59c"></path><path d="M264.29,267.18a11.85,11.85,0,0,0-3.35,2.22,9,9,0,0,0-2.1,6.58,32.11,32.11,0,0,0,2,9l5.37,16.33a4.47,4.47,0,0,0,.45,1c1.06,1.6,3.81.9,4.75-.78s.67-3.75.41-5.66a102.7,102.7,0,0,1-.8-17.79,1.76,1.76,0,0,1,.36-1.19,1.65,1.65,0,0,1,1-.35c4.62-.48,9.29.05,13.94-.08s9.49-1,13.13-3.91,5.67-8.2,3.64-12.38a4.2,4.2,0,0,0-1.81-2,5.68,5.68,0,0,0-2.78-.35c-5.44.25-10.56.29-15.77,1.93-3.17,1-6.31,2.09-9.4,3.33C271.05,264,266.71,267.18,264.29,267.18Z" transform="translate(-4.2 -77.85)" fill="#606161"></path><path d="M192,267.18a11.76,11.76,0,0,0-3.36,2.22,9.14,9.14,0,0,0-2.1,6.58,31.78,31.78,0,0,0,2,9l5.37,16.33a4.44,4.44,0,0,0,.44,1c1.06,1.6,3.81.9,4.76-.78s.66-3.75.41-5.66a102.7,102.7,0,0,1-.8-17.79,1.7,1.7,0,0,1,.35-1.19,1.66,1.66,0,0,1,1-.35c4.62-.48,9.29.05,13.93-.08s9.49-1,13.14-3.91,5.67-8.2,3.63-12.38a4.15,4.15,0,0,0-1.81-2,5.65,5.65,0,0,0-2.78-.35c-5.44.25-10.55.29-15.76,1.93-3.18,1-6.31,2.09-9.4,3.33C198.71,264,194.36,267.18,192,267.18Z" transform="translate(-4.2 -77.85)" fill="url(#linear-gradient-22)"></path><path d="M264.29,267.18a11.85,11.85,0,0,0-3.35,2.22,9,9,0,0,0-2.1,6.58,32.11,32.11,0,0,0,2,9l5.37,16.33a4.47,4.47,0,0,0,.45,1c1.06,1.6,3.81.9,4.75-.78s.67-3.75.41-5.66a102.7,102.7,0,0,1-.8-17.79,1.76,1.76,0,0,1,.36-1.19,1.65,1.65,0,0,1,1-.35c4.62-.48,9.29.05,13.94-.08s9.49-1,13.13-3.91,5.67-8.2,3.64-12.38a4.2,4.2,0,0,0-1.81-2,5.68,5.68,0,0,0-2.78-.35c-5.44.25-10.56.29-15.77,1.93-3.17,1-6.31,2.09-9.4,3.33C271.05,264,266.71,267.18,264.29,267.18Z" transform="translate(-4.2 -77.85)" fill="url(#linear-gradient-23)"></path><path d="M196.29,306.35a3.55,3.55,0,0,1-.81,1.19,18.13,18.13,0,0,1-3.41,2.89,4.76,4.76,0,0,0-1.53,1.28,2.15,2.15,0,0,0-.29,1.6,1.33,1.33,0,0,0,.53.86,1.9,1.9,0,0,0,1.37.1,26.25,26.25,0,0,0,7-2.52,9,9,0,0,0,1.08-.63,5,5,0,0,0,1.95-4.88,2.89,2.89,0,0,0-.25-.77,5.37,5.37,0,0,0-.53-.81,16.74,16.74,0,0,0-2.14-2.66.43.43,0,0,0-.24-.14.45.45,0,0,0-.31.1c-.45.26-.89.53-1.31.82s-.8.43-1,.75C196.05,304.33,196.59,305.48,196.29,306.35Z" transform="translate(-4.2 -77.85)" fill="#606161"></path><path d="M268.31,307.42a3.57,3.57,0,0,1-.8,1.19,18.51,18.51,0,0,1-3.42,2.89,4.79,4.79,0,0,0-1.53,1.29,2.12,2.12,0,0,0-.29,1.59,1.38,1.38,0,0,0,.54.86,1.89,1.89,0,0,0,1.37.11,26.55,26.55,0,0,0,7-2.53,9,9,0,0,0,1.08-.63,5,5,0,0,0,1.95-4.88,3.29,3.29,0,0,0-.24-.77,4.76,4.76,0,0,0-.54-.81,16.74,16.74,0,0,0-2.14-2.66.49.49,0,0,0-.24-.14.46.46,0,0,0-.31.1c-.45.26-.88.53-1.31.82s-.8.43-1,.75C268.07,305.4,268.61,306.55,268.31,307.42Z" transform="translate(-4.2 -77.85)" fill="#606161"></path><path d="M288.79,196.25c-.73-2.7-3-5.94-8.58-6.61-4-.47-5.76.53-6.07,1.73a2.2,2.2,0,0,0-.4.93l-.13-.82c-.18,2.25-.84,8.3-.78,11.73s1.43,7,3.94,6.81,8.48-4,9.76-5.61S289.53,199,288.79,196.25Z" transform="translate(-4.2 -77.85)" fill="#c8a59c"></path><path d="M279.88,212.21a2.34,2.34,0,0,0,1.32.82l1.85.62a5.09,5.09,0,0,0,1.67.35,1.72,1.72,0,0,0,1.48-.73,2.61,2.61,0,0,0,.25-1.36,23.36,23.36,0,0,0-.81-7.37,1.47,1.47,0,0,0-.65-.91,1.42,1.42,0,0,0-.82,0c-1.66.33-3.89,1.63-4.4,3.38a5.93,5.93,0,0,0,.05,2C279.86,209.92,279.35,211.32,279.88,212.21Z" transform="translate(-4.2 -77.85)" fill="#c8a59c"></path><path d="M195.72,202.71c.06,1.6,1.87,2.47,2.75,3.8s.84,3.37,2.06,4.5,3.27.79,5,.09c.54-.23,1,2.93,1.42,3.33,1.46,1.37,4-.42,5.52-1.3a1.86,1.86,0,0,0,.73-.63,21.23,21.23,0,0,0-.23-3.44c-.11-3-.27-6.09-.48-9.13a25.75,25.75,0,0,0-.74-5.24,8.44,8.44,0,0,0-1.77-3.44,6.66,6.66,0,0,0-5.6-2,8.08,8.08,0,0,0-5.26,3,10.44,10.44,0,0,0-2,5.48C196.85,199.3,195.66,201.12,195.72,202.71Z" transform="translate(-4.2 -77.85)" fill="#f0cac5"></path><path d="M192.84,188.36a6.42,6.42,0,0,0,5.9,5.85c1.69.12,3.66-.31,4.87.87.29.29.54.66.94.74a2.87,2.87,0,0,0,.77,0c1.33-.06,2,1.58,2.2,2.89.91-.2.34-2.21,1.27-2.23a.8.8,0,0,1,.52.21,2.83,2.83,0,0,1,.1,4.2,8.05,8.05,0,0,1,1.78,4.67c.05,1.44.07,3.38,1.47,3.67a1.93,1.93,0,0,0,1.7-.64c1.8-1.78,1.12-4.94,2.5-7.05.86-1.31,2.45-2.11,3-3.58a4.51,4.51,0,0,0,0-2.72,10.06,10.06,0,0,0-3.91-5.64,14.29,14.29,0,0,1-2.3-1.68,16,16,0,0,1-1.39-2c-2.77-4.14-7-3.7-11.37-3.56C197.26,182.39,192.7,183.8,192.84,188.36Z" transform="translate(-4.2 -77.85)" fill="#edb607"></path><path d="M140.73,331.43a8.45,8.45,0,1,1,8.45-8.45A8.46,8.46,0,0,1,140.73,331.43Zm0-12.33a3.88,3.88,0,1,0,3.88,3.88A3.88,3.88,0,0,0,140.73,319.1Z" transform="translate(-4.2 -77.85)" fill="#05668D"></path><path d="M140.73,332.39a8.45,8.45,0,1,1,8.45-8.44A8.45,8.45,0,0,1,140.73,332.39Zm0-12.32a3.88,3.88,0,1,0,3.88,3.88A3.88,3.88,0,0,0,140.73,320.07Z" transform="translate(-4.2 -77.85)" fill="url(#linear-gradient-24)"></path><path d="M205.68,331.43a8.45,8.45,0,1,1,8.45-8.45A8.46,8.46,0,0,1,205.68,331.43Zm0-12.33a3.88,3.88,0,1,0,3.88,3.88A3.88,3.88,0,0,0,205.68,319.1Z" transform="translate(-4.2 -77.85)" fill="#05668D"></path><path d="M205.68,332.39a8.45,8.45,0,1,1,8.45-8.44A8.45,8.45,0,0,1,205.68,332.39Zm0-12.32a3.88,3.88,0,1,0,3.88,3.88A3.88,3.88,0,0,0,205.68,320.07Z" transform="translate(-4.2 -77.85)" fill="url(#linear-gradient-25)"></path><path d="M279.8,331.43a8.45,8.45,0,1,1,8.44-8.45A8.46,8.46,0,0,1,279.8,331.43Zm0-12.33a3.88,3.88,0,1,0,3.88,3.88A3.88,3.88,0,0,0,279.8,319.1Z" transform="translate(-4.2 -77.85)" fill="#05668D"></path><path d="M279.8,332.39a8.45,8.45,0,1,1,8.44-8.44A8.46,8.46,0,0,1,279.8,332.39Zm0-12.32a3.88,3.88,0,1,0,3.88,3.88A3.88,3.88,0,0,0,279.8,320.07Z" transform="translate(-4.2 -77.85)" fill="url(#linear-gradient-26)"></path><path d="M132.86,316.18s6.86,9.05,7.55,9,1.66-1.29,1.66-1.29l-7.87-8Z" transform="translate(-4.2 -77.85)" fill="#606161"></path><polygon points="121.4 237.55 122.76 241.65 130.56 238.03 129.44 234.33 121.4 237.55" fill="#05668D"></polygon><polygon points="121.4 237.55 122.76 241.65 130.56 238.03 129.44 234.33 121.4 237.55" fill="url(#linear-gradient-27)"></polygon><polygon points="146.8 253.95 148.16 258.05 155.96 254.43 154.84 250.73 146.8 253.95" fill="#05668D"></polygon><polygon points="146.8 253.95 148.16 258.05 155.96 254.43 154.84 250.73 146.8 253.95" fill="url(#linear-gradient-28)"></polygon><path d="M198,315.37s6.86,9.06,7.55,9,1.66-1.29,1.66-1.29l-7.87-8Z" transform="translate(-4.2 -77.85)" fill="#606161"></path><polygon points="186.51 236.75 187.87 240.84 195.67 237.23 194.54 233.53 186.51 236.75" fill="#05668D"></polygon><polygon points="186.51 236.75 187.87 240.84 195.67 237.23 194.54 233.53 186.51 236.75" fill="url(#linear-gradient-29)"></polygon><path d="M273.42,316.66s6.86,9.06,7.56,9,1.66-1.28,1.66-1.28l-7.88-8Z" transform="translate(-4.2 -77.85)" fill="#606161"></path><polygon points="261.96 238.03 263.33 242.13 271.12 238.51 270 234.82 261.96 238.03" fill="#05668D"></polygon><polygon points="261.96 238.03 263.33 242.13 271.12 238.51 270 234.82 261.96 238.03" fill="url(#linear-gradient-30)"></polygon><path d="M213.86,219.83c-2.13,1.25-3.27,3.67-4.09,6-1.83,5.22-2.71,10.87-5.62,15.58a20.82,20.82,0,0,1-6.61,6.63c-1.72,1.07-3.64,1.91-5,3.41s-2,4-.65,5.52,3.58,1.44,5.47.95c8.09-2.1,13.8-9.19,18.35-16.2a36.76,36.76,0,0,0,4.86-9.7C221.72,228,221.22,215.5,213.86,219.83Z" transform="translate(-4.2 -77.85)" fill="#05668D"></path><path d="M278.75,188.06c-1.95.16-4.37.25-5.47,1.92-1.34,2.05.36,2.94,2.11,3.47,3.17,1,3.51,4.38,4.38,7.08a6.29,6.29,0,0,0,2.33,3.53c.66.44,1.45.55,2.11,1a4.92,4.92,0,0,1,1.92,2.83,15.8,15.8,0,0,0,1.15,3.46,8.75,8.75,0,0,0,3.4,2.94,11.42,11.42,0,0,0,3.7,1.53,11.57,11.57,0,0,0,5.93-1,4.63,4.63,0,0,1,1.77-.45c1.95,0,3.07,2.39,4.95,2.91,1.43.39,3-.17,4.44.12a27.41,27.41,0,0,0,5.4,1,8.65,8.65,0,0,0,5.65-1.65,4.49,4.49,0,0,0,1.35-5.37c-.93-1.7-3-2.31-4.62-3.44a7.69,7.69,0,0,1-3.09-5.05c-.23-1.62,0-3.34-.63-4.82a6.62,6.62,0,0,0-4.11-3.17,17.1,17.1,0,0,0-6-.91c-3,.1-6.12,1-9.1.34s-5.51-3-8.17-4.72c-2.83-1.83-5.14-2-8.34-1.55Z" transform="translate(-4.2 -77.85)" fill="#606161"></path><path d="M278.75,188.06c-1.95.16-4.37.25-5.47,1.92-1.34,2.05.36,2.94,2.11,3.47,3.17,1,3.51,4.38,4.38,7.08a6.29,6.29,0,0,0,2.33,3.53c.66.44,1.45.55,2.11,1a4.92,4.92,0,0,1,1.92,2.83,15.8,15.8,0,0,0,1.15,3.46,8.75,8.75,0,0,0,3.4,2.94,11.42,11.42,0,0,0,3.7,1.53,11.57,11.57,0,0,0,5.93-1,4.63,4.63,0,0,1,1.77-.45c1.95,0,3.07,2.39,4.95,2.91,1.43.39,3-.17,4.44.12a27.41,27.41,0,0,0,5.4,1,8.65,8.65,0,0,0,5.65-1.65,4.49,4.49,0,0,0,1.35-5.37c-.93-1.7-3-2.31-4.62-3.44a7.69,7.69,0,0,1-3.09-5.05c-.23-1.62,0-3.34-.63-4.82a6.62,6.62,0,0,0-4.11-3.17,17.1,17.1,0,0,0-6-.91c-3,.1-6.12,1-9.1.34s-5.51-3-8.17-4.72c-2.83-1.83-5.14-2-8.34-1.55Z" transform="translate(-4.2 -77.85)" fill="url(#linear-gradient-31)"></path><path d="M486.15,227.78c0,33.91-28.9,92.62-62.82,92.62s-60-58.71-60-92.62a61.42,61.42,0,1,1,122.83,0Z" transform="translate(-4.2 -77.85)" fill="#05668D"></path><path d="M486.15,227.78c0,33.91-28.9,92.62-62.82,92.62s-60-58.71-60-92.62a61.42,61.42,0,1,1,122.83,0Z" transform="translate(-4.2 -77.85)" fill="url(#linear-gradient-32)"></path><rect x="383.72" y="227.71" width="78.32" height="19.33" rx="9.66" fill="#05668D"></rect><rect x="383.72" y="227.71" width="78.32" height="19.33" rx="9.66" fill="url(#linear-gradient-33)"></rect><rect x="383.72" y="249.05" width="78.32" height="19.33" rx="9.66" fill="#05668D"></rect><rect x="383.72" y="249.05" width="78.32" height="19.33" rx="9.66" fill="url(#linear-gradient-34)"></rect><rect x="375.83" y="235.13" width="95.27" height="23.51" rx="11.75" fill="#05668D"></rect><rect x="375.83" y="235.13" width="95.27" height="23.51" rx="11.75" fill="url(#linear-gradient-35)"></rect><path d="M442.12,306.94l-3-.48a101.08,101.08,0,0,1,7.55-25.19c.66-1.46,1.36-2.91,2.06-4.37,2.16-4.51,4.41-9.17,5.4-14.06,1.13-5.51.54-12.92-4.5-17.16a7.44,7.44,0,0,0-5.22-2,8,8,0,0,0-4.54,2.51,19.24,19.24,0,0,1,.15,18.54,4.8,4.8,0,0,1-2.71,2.44,3.32,3.32,0,0,1-2.74-.42,6.5,6.5,0,0,1-2.58-4.28,21.06,21.06,0,0,1,4.11-16.58,14.32,14.32,0,0,0-2.57-2.65,6.86,6.86,0,0,0-2.76-1.42c-3-.71-5.63,2.34-7.13,5.57a24.27,24.27,0,0,1,6.67,18.21,9.44,9.44,0,0,1-2,5.68c-1.53,1.75-4.5,2.63-6.63,1a6.3,6.3,0,0,1-2-3.26,32.37,32.37,0,0,1,.39-20.87h0a6.67,6.67,0,0,0-3.32-1.78,6.14,6.14,0,0,0-4.19,1.44c-6.13,4.54-6.89,13.53-6.8,18.48a57.48,57.48,0,0,0,16,38.41l-2.18,2.1a60.57,60.57,0,0,1-16.83-40.46c-.18-9.55,2.67-17,8-21a9.06,9.06,0,0,1,6.38-2,8.82,8.82,0,0,1,4.2,1.92c2-3.75,5.68-7.21,10-6.43a9.72,9.72,0,0,1,4.05,2,16.82,16.82,0,0,1,2.77,2.76,9.34,9.34,0,0,1,13.4-.32c6.06,5.09,6.82,13.72,5.52,20.1-1.06,5.24-3.38,10.08-5.63,14.76-.69,1.43-1.37,2.86-2,4.3A97.33,97.33,0,0,0,442.12,306.94Zm-19.67-56.31a29.23,29.23,0,0,0,.12,17.49,3.76,3.76,0,0,0,1,1.8c.66.5,1.92.08,2.53-.6a6.31,6.31,0,0,0,1.23-3.88A21.09,21.09,0,0,0,422.45,250.63Zm15.36-1.86A17.92,17.92,0,0,0,435,262a3.61,3.61,0,0,0,1.19,2.25c.57,0,.86-.35,1.22-1A16,16,0,0,0,437.81,248.77Z" transform="translate(-4.2 -77.85)" fill="#05668D"></path></svg>