<svg width="512" height="512" viewBox="0 0 512 512" fill="none" xmlns="http://www.w3.org/2000/svg">
<path fill-rule="evenodd" clip-rule="evenodd" d="M286.579 34.4327C184.308 66.3437 108.142 142.13 85.542 234.471C82.8119 245.622 80.9593 265.743 81.0007 283.767C81.0864 320.725 87.7787 346.262 105.143 375.89C117.148 396.372 133.045 415.96 135.671 413.513C136.445 412.793 135.668 402.076 133.946 389.695C125.486 328.863 159.179 254.462 208.351 225.4L215.25 221.32L209.213 210.711C200.181 194.845 198.517 182.907 203.768 171.647C206.253 166.314 209.075 161.949 210.035 161.949C210.995 161.949 216.878 164.28 223.109 167.129C234.541 172.357 248.39 185.089 253.404 194.981C255.85 199.808 258.371 200.261 278.48 199.467C298.761 198.667 302.641 199.379 320.233 207.144C341.894 216.701 371.104 240.265 371.086 248.167C371.053 263.304 352.539 276.326 311.271 290.229L294.119 296.01L306.328 304.804C321.633 315.826 333.499 332.441 342.168 354.98C347.664 369.27 348.905 378.144 348.92 403.323L348.938 434.167L356.51 430.658C370.25 424.289 395.613 401.869 407.13 385.914C423.659 363.012 430.744 340.547 430.992 310.249C431.341 267.867 420.137 243.419 373.952 185.783C328.961 129.639 315.928 99.6476 318.717 58.6691C319.559 46.2888 321.196 34.0752 322.351 31.525C325.451 24.6979 315.086 25.54 286.579 34.4327ZM265.32 226.036C258.929 231.764 261.124 243.538 269.501 248.458C276.427 252.526 278.037 252.592 285.013 249.094C300.097 241.531 295.47 222.858 278.513 222.858C273.206 222.858 267.27 224.288 265.32 226.036ZM244.306 323.241C239.393 327.955 234.514 335.9 233.471 340.894C231.79 348.926 230.499 349.98 222.297 350.031C198.16 350.182 170.179 371.335 170.179 389.431C170.179 402.375 178.331 411.776 196.854 420.187C219.36 430.409 218.985 433.788 194.993 436.94L181.691 438.687L188.708 450.604C196.739 464.248 220.406 481.607 234.157 483.943C252 486.972 286.142 465.087 293.638 445.814C296.838 437.586 296.699 437.363 288.405 437.363C276.879 437.363 263.943 432.7 266.239 429.374C267.264 427.885 274.524 423.751 282.374 420.187C308.402 408.365 315.901 390.988 303.028 372.321C295.925 362.019 270.987 349.972 256.763 349.972C244.433 349.972 244.362 346.045 256.483 334.835L265.964 326.07L259.603 320.368L253.244 314.666L244.306 323.241Z" fill="#FFFDFA"/>
</svg>
