<svg id="Layer_1" data-name="Layer 1" xmlns="http://www.w3.org/2000/svg" viewBox="0 0 400 300" width="406" height="306" class="illustration styles_illustrationTablet__1DWOa"><title>_</title><ellipse cx="202.2" cy="231.49" rx="168.58" ry="10.65" fill="#e6e6e6" opacity="0.45"></ellipse><rect x="51.93" y="157.11" width="12.47" height="3.44" transform="translate(75.18 -9.46) rotate(25.89)" fill="#24285b"></rect><rect x="33.04" y="158.41" width="37.93" height="26.23" transform="translate(80.1 -5.49) rotate(25.89)" fill="#ffd200"></rect><path d="M149.28,88.64s74,14.36,91.1,24.61l-4,10s-43.65-11.32-76.46-7.5Z" fill="#D44927"></path><path d="M149.28,88.64s74,14.36,91.1,24.61l-4,10s-43.65-11.32-76.46-7.5Z" opacity="0.08"></path><path d="M237.3,121s8.62,5.68,8.94,4-1.66-3.8-1.66-3.8,9.76-.38,10-2.71-14.25-5.26-14.25-5.26Z" fill="#f4a28c"></path><path d="M178.66,227.71s1.66,3.06,4.63,2.86,4.17,2.54,1.65,3.69-9.82-1.19-9.82-1.19l-.59-5.39Z" fill="#D44927"></path><path d="M66.77,212.15s-3.27,1.19-3.51,4.15-3.13,3.75-3.9,1.09S62,207.85,62,207.85l5.42.23Z" fill="#D44927"></path><path d="M145.16,68.27A31.76,31.76,0,0,1,145,76.8a2.58,2.58,0,0,1-3.09,2,5.7,5.7,0,0,1-4.58-4.16l-1.66-4.44a4.61,4.61,0,0,1,1.89-5C140.38,63,145,65.15,145.16,68.27Z" fill="#f4a28c"></path><polygon points="135.95 70.96 133.78 87.65 143.07 88.18 140.92 75.82 135.95 70.96" fill="#f4a28c"></polygon><path d="M139.83,72.82s-.1-2-1.58-1.78-1.36,3,.67,3.26Z" fill="#f4a28c"></path><path d="M145.36,71.51l1.49,1.93a.83.83,0,0,1-.48,1.31l-2,.42Z" fill="#f4a28c"></path><path d="M141.5,78.51a6.07,6.07,0,0,1-3.05-1.71s.22,3.08,3.68,6Z" fill="#ce8172" opacity="0.31"></path><path d="M110,168.8s-5,15.67,5.57,19.71c4.92,1.87,17,1.86,28.51,1.31a26.89,26.89,0,0,1,28.06,24.91l.93,12.51,5.48.47,1.91-22.4a29.77,29.77,0,0,0-26.72-32.15Z" fill="#24285b"></path><path d="M135.61,73.57l-1.2-7s-2.76-2.12-.46-4.09,3.89-.08,5.88-3a3,3,0,0,1,5.64.71c.5,2.1,5.24,1.84,4,4.76s-5.43,2.71-6.62,2.64C137.63,67.28,141.54,74.64,135.61,73.57Z" fill="#24285b"></path><path d="M135.3,87.37l1.9-.18a27.94,27.94,0,0,1,23.38,8.88,27.37,27.37,0,0,1,5.59,9.67c5.24,15.8-18.52,66.81-18.52,66.81L110,168.8S91.21,88.23,135.3,87.37Z" fill="#D44927"></path><path d="M146.44,102.5a30,30,0,0,1-15.85,24c-15.47,8.4-1.73,44.42-1.73,44.42L110,168.8s-4.63-22.74-4-34.57S113.86,99.32,146.44,102.5Z" opacity="0.08"></path><path d="M139.38,89.72a15.18,15.18,0,0,1,7.3,6.67c1.82,3.44,2.61,8.37-1.49,14.29-8.19,11.84-45.3-27-80.91,41.63l-8-3.34S83.83,64.8,139.38,89.72Z" fill="#D44927"></path><path d="M139.38,89.72a15.18,15.18,0,0,1,7.3,6.67c1.82,3.44,2.61,8.37-1.49,14.29-8.19,11.84-45.3-27-80.91,41.63l-8-3.34S83.83,64.8,139.38,89.72Z" fill="#fff" opacity="0.46"></path><path d="M58.06,149.7s-3.82,6.15-1.28,8.31,6.88,3.31,7.5-5.7Z" fill="#f4a28c"></path><path d="M109.65,170.89c-.61,1.16-15,35.77-23.28,38s-20-1.38-20-1.38l-.67,6s18.57,8.87,31.24,5.57S132,185,132,185l-20.57-13.78" fill="#24285b"></path><path d="M257,208.31v6.07c0,2.75-7.67,5-17.12,5s-17.11-2.26-17.11-5v-6.07Z" fill="#ffd200"></path><path d="M257,215.62v6.07c0,2.75-7.67,5-17.12,4.95s-17.12-2.26-17.11-5v-6.06Z" fill="#ffd200"></path><path d="M257,215.62v6.07c0,2.75-7.67,5-17.12,4.95s-17.12-2.26-17.11-5v-6.06Z" opacity="0.08"></path><ellipse cx="239.69" cy="215.39" rx="4.93" ry="16.96" transform="translate(23.89 454.72) rotate(-89.9)" fill="#ffd200"></ellipse><path d="M257,208.31v6.07c0,2.75-7.67,5-17.12,5s-17.11-2.26-17.11-5v-6.07Z" opacity="0.08"></path><path d="M255.75,201.06v6.07c0,2.75-7.67,5-17.12,5s-17.12-2.26-17.11-5V201Z" fill="#ffd200"></path><path d="M257,193.75v6.07c0,2.74-7.68,5-17.13,5s-17.11-2.26-17.1-5v-6.07Z" fill="#ffd200"></path><ellipse cx="239.7" cy="208.15" rx="4.93" ry="16.96" transform="translate(31.15 447.49) rotate(-89.9)" fill="#ffd200"></ellipse><path d="M255.75,201.06v6.07c0,2.75-7.67,5-17.12,5s-17.12-2.26-17.11-5V201Z" opacity="0.08"></path><ellipse cx="238.48" cy="200.96" rx="4.93" ry="16.96" transform="translate(37.11 439.1) rotate(-89.9)" fill="#ffd200"></ellipse><path d="M257,193.75v6.07c0,2.74-7.68,5-17.13,5s-17.11-2.26-17.1-5v-6.07Z" opacity="0.08"></path><ellipse cx="239.89" cy="193.72" rx="4.93" ry="17.12" transform="translate(45.76 433.28) rotate(-89.9)" fill="#ffd200"></ellipse><path d="M313.71,149.08s11.6,22,14.35,45.4-4.45,39.62-44.13,36.94-49.28-18.92-42-40.52,39-47.64,39-47.64Z" fill="#24285b"></path><path d="M313.71,149.08s20.34-12.78,15-22.06-18.35-7-25.09-10.33-42.91-9.17-22.69,26.57Z" fill="#24285b"></path><path d="M310.93,143.91s-20.46-3.88-37.67-3.28" fill="none" stroke="#ffd200" stroke-linecap="round" stroke-linejoin="round" stroke-width="3"></path><path d="M279.88,143.12s-8.4-24.24-21.63-12.89,20.81,12.89,20.81,12.89h0s-33.5,8-17.74,21.4S279.88,143.12,279.88,143.12Z" fill="none" stroke="#ffd200" stroke-linecap="round" stroke-linejoin="round" stroke-width="3"></path><circle cx="278.13" cy="192.16" r="19.97" fill="#D44927"></circle><path d="M283,182.25c.62.19.75.46.56,1.08l-.41,1.32a6.3,6.3,0,0,1,3.82,5.27c.13.75-.12,1.05-.94,1.16l-1.51.19c-.71.1-1-.12-1.12-.88a3.54,3.54,0,0,0-2.81-3.13c-2.3-.7-3.55-.35-4,1.19a2.13,2.13,0,0,0,1.31,2.38,16.52,16.52,0,0,0,1.85.89,13,13,0,0,1,3.37,1.79,5.27,5.27,0,0,1,1.33,1.35,5.46,5.46,0,0,1,.27,4.22c-.9,2.94-3.48,4.33-7.11,3.78l-.43,1.4c-.19.62-.44.78-1.07.59l-1.48-.45c-.62-.19-.77-.47-.58-1.09l.42-1.38a6.39,6.39,0,0,1-4.12-5.8c0-.66.3-1,1-1l1.47-.09c.74,0,1,.22,1.08,1a3.68,3.68,0,0,0,2.95,3.37c2.48.76,4,.36,4.45-1.23a1.74,1.74,0,0,0-.65-2,9.77,9.77,0,0,0-2.51-1.33,12.56,12.56,0,0,1-3.38-1.88,5.45,5.45,0,0,1-1.29-1.37,5.15,5.15,0,0,1-.34-4.12c.89-2.91,3.32-4.29,6.91-3.69l.41-1.33c.19-.62.47-.77,1.09-.58Z" fill="#fff"></path><path d="M328.73,126.62s3.87,7.35-4.37,8.35-15-6.58-21.55-4.9-25.59,4.77-28-4.28,9.22-13.34,16.93-12.23S326.62,118,328.73,126.62Z" fill="#D44927"></path><path d="M346.39,209.21V216c0,3.08-8.59,5.56-19.17,5.54s-19.15-2.53-19.15-5.61v-6.79Z" fill="#ffd200"></path><path d="M346.37,217.39v6.79c0,3.08-8.58,5.56-19.16,5.54s-19.16-2.52-19.15-5.6v-6.79Z" fill="#ffd200"></path><path d="M346.37,217.39v6.79c0,3.08-8.58,5.56-19.16,5.54s-19.16-2.52-19.15-5.6v-6.79Z" opacity="0.08"></path><ellipse cx="327.03" cy="217.13" rx="5.52" ry="18.98" transform="translate(109.34 543.8) rotate(-89.9)" fill="#ffd200"></ellipse><path d="M346.39,209.21V216c0,3.08-8.59,5.56-19.17,5.54s-19.15-2.53-19.15-5.61v-6.79Z" opacity="0.08"></path><path d="M345,201.09v6.79c0,3.08-8.59,5.56-19.17,5.54s-19.15-2.53-19.15-5.6V201Z" fill="#ffd200"></path><path d="M346.41,192.91v6.79c0,3.08-8.58,5.56-19.16,5.54s-19.16-2.53-19.15-5.61v-6.79Z" fill="#ffd200"></path><ellipse cx="327.04" cy="209.02" rx="5.52" ry="18.98" transform="translate(117.47 535.71) rotate(-89.9)" fill="#ffd200"></ellipse><path d="M345,201.09v6.79c0,3.08-8.59,5.56-19.17,5.54s-19.15-2.53-19.15-5.6V201Z" opacity="0.08"></path><ellipse cx="325.67" cy="200.98" rx="5.52" ry="18.98" transform="translate(124.15 526.32) rotate(-89.9)" fill="#ffd200"></ellipse><path d="M346.41,192.91v6.79c0,3.08-8.58,5.56-19.16,5.54s-19.16-2.53-19.15-5.61v-6.79Z" opacity="0.08"></path><circle cx="345.66" cy="216.77" r="14.22" opacity="0.08"></circle><path d="M336.2,202.54s-14.89,4.54-12.5,27.09c0,0,9.71.32,14.31-.86C342.13,227.71,336.2,202.54,336.2,202.54Z" opacity="0.08"></path><ellipse cx="327.25" cy="192.87" rx="5.52" ry="19.16" transform="translate(133.83 519.8) rotate(-89.9)" fill="#ffd200"></ellipse><circle cx="345.66" cy="216.77" r="14.22" fill="#ffd200"></circle><circle cx="345.66" cy="216.77" r="14.22" opacity="0.08"></circle><g opacity="0.08"><circle cx="346.35" cy="212.49" r="14.22"></circle></g><circle cx="346.35" cy="212.49" r="14.22" fill="#ffd200"></circle><path d="M346.81,206.13c.4,0,.53.14.53.54v.86a3.91,3.91,0,0,1,3.21,2.43c.21.42.13.65-.35.86l-.85.38c-.41.19-.6.11-.83-.31a2.18,2.18,0,0,0-2.23-1.35c-1.49,0-2.17.44-2.17,1.43a1.33,1.33,0,0,0,1.2,1.18,9.57,9.57,0,0,0,1.26.19,8.6,8.6,0,0,1,2.33.45,3.31,3.31,0,0,1,1,.56,3.39,3.39,0,0,1,.93,2.45c0,1.91-1.28,3.2-3.53,3.53v.91c0,.4-.13.54-.53.54h-1c-.4,0-.54-.14-.54-.54v-.89a4,4,0,0,1-3.5-2.69.57.57,0,0,1,.4-.81l.86-.31c.44-.16.63,0,.82.38a2.28,2.28,0,0,0,2.36,1.47c1.61,0,2.41-.5,2.41-1.54a1.06,1.06,0,0,0-.75-1.08,6,6,0,0,0-1.73-.33,8,8,0,0,1-2.34-.51,3.41,3.41,0,0,1-1-.58,3.2,3.2,0,0,1-.94-2.38c0-1.88,1.19-3.14,3.43-3.44v-.86c0-.4.14-.54.54-.54Z" fill="#fff"></path></svg>