<svg xmlns="http://www.w3.org/2000/svg" version="1.1" xmlns:xlink="http://www.w3.org/1999/xlink" xmlns:svgjs="http://svgjs.com/svgjs" width="2560" height="2000" preserveAspectRatio="none" viewBox="0 0 2560 2000"><g mask="url(&quot;#SvgjsMask1059&quot;)" fill="none"><path d="M991.37 1567.88a115.59 115.59 0 1 0 186.65-136.4z" stroke="rgba(253, 237, 208, 1)"></path><path d="M578.42 1585.93L622.08 1585.93L622.08 1629.59L578.42 1629.59z" stroke="rgba(253, 237, 208, 1)"></path><path d="M1741.7 1092.09L1793.28 1092.09L1793.28 1206.8L1741.7 1206.8z" fill="rgba(253, 237, 208, 1)"></path><path d="M1497.95 570.36 a7.31 7.31 0 1 0 14.62 0 a7.31 7.31 0 1 0 -14.62 0z" stroke="rgba(5, 102, 141, 1)"></path><path d="M126.57 40.66L217.18 40.66L217.18 131.27L126.57 131.27z" stroke="rgba(5, 102, 141, 1)"></path><path d="M1531.53 1951.04L1620.39 1951.04L1620.39 1984.71L1531.53 1984.71z" fill="rgba(212, 73, 39, 1)"></path><path d="M339.67 1643.22 a60.28 60.28 0 1 0 120.56 0 a60.28 60.28 0 1 0 -120.56 0z" stroke="rgba(212, 73, 39, 1)"></path><path d="M191.64 453.37a58.78 58.78 0 1 0 110.68 39.62z" stroke="rgba(212, 73, 39, 1)"></path><path d="M871.71 1577.26 a34.03 34.03 0 1 0 68.06 0 a34.03 34.03 0 1 0 -68.06 0z" fill="rgba(5, 102, 141, 1)"></path><path d="M159.56 978.02L300.91 978.02L300.91 1119.37L159.56 1119.37z" fill="rgba(212, 73, 39, 1)"></path><path d="M1732.54 1818.37L1803.53 1818.37L1803.53 1906.31L1732.54 1906.31z" fill="rgba(212, 73, 39, 1)"></path><path d="M568.56 538.67a70.37 70.37 0 1 0 96.19-102.74z" fill="rgba(253, 237, 208, 1)"></path><path d="M801.82 1591.6 a31.54 31.54 0 1 0 63.08 0 a31.54 31.54 0 1 0 -63.08 0z" stroke="rgba(212, 73, 39, 1)"></path><path d="M954.38 354.65L1047.12 354.65L1047.12 447.39L954.38 447.39z" stroke="rgba(212, 73, 39, 1)"></path><path d="M1988.13 39.72a127.68 127.68 0 1 0 223.92 122.76z" fill="rgba(212, 73, 39, 1)"></path><path d="M345.52 1976.07L427 1976.07L427 2057.55L345.52 2057.55z" fill="rgba(212, 73, 39, 1)"></path></g><defs><mask id="SvgjsMask1059"><rect width="2560" height="2000" fill="#ffffff"></rect></mask></defs></svg>