<svg xmlns="http://www.w3.org/2000/svg" version="1.1" xmlns:xlink="http://www.w3.org/1999/xlink" xmlns:svgjs="http://svgjs.com/svgjs" width="2560" height="2000" preserveAspectRatio="none" viewBox="0 0 2560 2000"><g mask="url(&quot;#SvgjsMask1061&quot;)" fill="none"><path d="M556.79 1707.48L652.72 1707.48L652.72 1803.41L556.79 1803.41z" fill="rgba(253, 237, 208, 1)"></path><path d="M1546.46 1658.16L1634.8 1658.16L1634.8 1746.5L1546.46 1746.5z" stroke="rgba(212, 73, 39, 1)"></path><path d="M2323.36 333.11a156.55 156.55 0 1 0-4.08 313.08z" fill="rgba(253, 237, 208, 1)"></path><path d="M1155.11 106.73L1305.11 106.73L1305.11 256.73L1155.11 256.73z" fill="rgba(253, 237, 208, 1)"></path><path d="M577.5 990.38L724.58 990.38L724.58 1137.46L577.5 1137.46z" stroke="rgba(253, 237, 208, 1)"></path><path d="M1547.54 134.68 a47.17 47.17 0 1 0 94.34 0 a47.17 47.17 0 1 0 -94.34 0z" stroke="rgba(212, 73, 39, 1)"></path><path d="M705.1 230.22a190.59 190.59 0 1 0 268.22-270.84z" stroke="rgba(212, 73, 39, 1)"></path><path d="M1280.04 1769.23a32.23 32.23 0 1 0 40.67 50z" stroke="rgba(5, 102, 141, 1)"></path><path d="M2552.72 1674.43L2599.38 1674.43L2599.38 1702.92L2552.72 1702.92z" fill="rgba(253, 237, 208, 1)"></path><path d="M1776.71 345.15a162.4 162.4 0 1 0 267.5 184.22z" fill="rgba(212, 73, 39, 1)"></path><path d="M916.02 1472.68 a43.31 43.31 0 1 0 86.62 0 a43.31 43.31 0 1 0 -86.62 0z" fill="rgba(253, 237, 208, 1)"></path><path d="M2213.2 413.59L2392.32 413.59L2392.32 542.53L2213.2 542.53z" stroke="rgba(5, 102, 141, 1)"></path><path d="M1256.38 523.81 a146.84 146.84 0 1 0 293.68 0 a146.84 146.84 0 1 0 -293.68 0z" fill="rgba(5, 102, 141, 1)"></path><path d="M1789.31 523.87a72.67 72.67 0 1 0-28.99-142.41z" stroke="rgba(253, 237, 208, 1)"></path><path d="M270.86 1351.05L275.23 1351.05L275.23 1355.42L270.86 1355.42z" fill="rgba(5, 102, 141, 1)"></path><path d="M2279.58 1146.4a137.03 137.03 0 1 0 197.97 189.52z" fill="rgba(5, 102, 141, 1)"></path></g><defs><mask id="SvgjsMask1061"><rect width="2560" height="2000" fill="#ffffff"></rect></mask></defs></svg>