<svg id="Layer_1" data-name="Layer 1" xmlns="http://www.w3.org/2000/svg" viewBox="0 0 400 300" width="406" height="306" class="illustration styles_illustrationTablet__1DWOa"><path d="M140.84,41.84c-40.9,10.1-73.23,42-82.71,83.08-7.05,30.55-.86,62.05,46.59,73.5,102.59,24.77,213.4,16.6,226.67-32.94S319.61,41.05,261,35.79C227.55,32.8,177.83,32.7,140.84,41.84Z" fill="#e6e6e6" opacity="0.3"></path><path d="M190.78,174.74s-7.56,3.83-4.67,8.26,9.19-4.13,9.19-4.13Z" fill="#f4a28c"></path><path d="M173.5,99A4.51,4.51,0,0,1,179,93.44,66.08,66.08,0,0,1,214.79,118c1.57,2.13,3.07,4.21,4.48,6.22a31.35,31.35,0,0,1-6.89,43.14l-16.29,12.19-6.44-5.89,13.07-12.49a17.1,17.1,0,0,0-.06-24.78L177,112.12Z" fill="#D44927"></path><path d="M173.5,99A4.51,4.51,0,0,1,179,93.44,66.08,66.08,0,0,1,214.79,118c1.57,2.13,3.07,4.21,4.48,6.22a31.35,31.35,0,0,1-6.89,43.14l-16.29,12.19-6.44-5.89,13.07-12.49a17.1,17.1,0,0,0-.06-24.78L177,112.12Z" fill="#fff" opacity="0.46"></path><ellipse cx="206.43" cy="254.19" rx="137.87" ry="13.24" fill="#e6e6e6" opacity="0.45"></ellipse><path d="M158.4,76.91a31.55,31.55,0,0,1,2.84,8,2.55,2.55,0,0,1-2.18,2.9,5.68,5.68,0,0,1-5.72-2.25L150.23,82a4.58,4.58,0,0,1,0-5.3C152.11,73.7,157.11,74.08,158.4,76.91Z" fill="#f4a28c"></path><polygon points="151.8 80.69 151.06 97.39 160.29 97.14 157.12 85.09 151.8 80.69" fill="#f4a28c"></polygon><path d="M155.05,83s-.78-1.8-2.09-1.1-.19,3.31,1.77,2.79Z" fill="#f4a28c"></path><path d="M159.73,79.85l2.07,1.27a.82.82,0,0,1,0,1.38l-1.66,1.08Z" fill="#f4a28c"></path><path d="M157.87,87.85a6.06,6.06,0,0,1-3.17-1.43s.48,3,4.16,5.64Z" fill="#ce8172" opacity="0.31"></path><path d="M151.4,85.19l-3.58-6.08s-3.31-1-1.87-3.63,3.59-1.44,4.41-4.86a3,3,0,0,1,5.49-1.32c1.21,1.77,5.51-.14,5.43,3s-4.09,4.42-5.23,4.78C151.06,78.64,157.29,84.1,151.4,85.19Z" fill="#24285b"></path><path d="M178.58,245.48s1.36,3.77,4.76,4.06,4.3,3.61,1.24,4.48-11-3.07-11-3.07l.22-4.91Z" fill="#D44927"></path><path d="M132.48,245.48s-1.36,3.77-4.76,4.06-4.3,3.61-1.24,4.48,11-3.07,11-3.07l-.22-4.91Z" fill="#D44927"></path><path d="M173,92.5a117.92,117.92,0,0,0-44.07,9.43,17,17,0,0,0-8.58,23.25l24,47.83,44.46-2.63s8.09-26.88,6.47-57.29A21.86,21.86,0,0,0,173,92.5Z" fill="#D44927"></path><path d="M144.34,173l-13.28,73.15h6.64l16.65-39.71a68.93,68.93,0,0,1,29.56-33.3l4.89-2.77Z" fill="#24285b"></path><path d="M188.8,170.38l-6.86,75.78h-8.83s2.06-57-13.87-69.16Z" fill="#24285b"></path><path d="M141.4,105.44s11.35,7.3,7.78,29.75a45,45,0,0,0,10.75,36.9l-15.59.92s-10-20.83-12.66-25.25S141.4,105.44,141.4,105.44Z" opacity="0.08"></path><path d="M143.7,112.24c.05-10.17-12.66-14.86-19.46-7.3a42.1,42.1,0,0,0-10.82,23.23c-2.71,22.33.27,71.08.27,71.08h8.08s5.46-48.72,17.38-71.08C142.47,121.94,143.68,116.64,143.7,112.24Z" fill="#D44927"></path><path d="M143.7,112.24c.05-10.17-12.66-14.86-19.46-7.3a42.1,42.1,0,0,0-10.82,23.23c-2.71,22.33.27,71.08.27,71.08h8.08s5.46-48.72,17.38-71.08C142.47,121.94,143.68,116.64,143.7,112.24Z" fill="#fff" opacity="0.46"></path><path d="M110.81,213.33v-3.45a4.72,4.72,0,0,1,4.72-4.72H120a4.72,4.72,0,0,1,4.72,4.72v3.7" fill="none" stroke="#24285b" stroke-miterlimit="10" stroke-width="2"></path><rect x="91" y="222.03" width="54.56" height="11.89" fill="#ffd200"></rect><rect x="91" y="222.03" width="54.56" height="11.89" opacity="0.08"></rect><polygon points="138.9 211.97 145.56 222.03 91 222.03 97.67 211.97 138.9 211.97" fill="#ffd200"></polygon><path d="M115.09,199.25s-2.42,8.05.77,8.05,7,1.53,4.59-8.05Z" fill="#f4a28c"></path><rect x="323.84" y="199.8" width="3.76" height="51.46" transform="translate(73.05 -79.61) rotate(15.67)" fill="#e6e6e6"></rect><path d="M336.26,203.17a3.61,3.61,0,0,1-.85-.11l-6.07-1.71a3.14,3.14,0,0,1-2.17-3.86l1.23-4.37a3.13,3.13,0,0,1,3.86-2.17l6.07,1.7a3.14,3.14,0,0,1,1.89,1.49,3.09,3.09,0,0,1,.28,2.38l-1.22,4.37A3.14,3.14,0,0,1,336.26,203.17Zm-.32-2a1.18,1.18,0,0,0,1.46-.82l1.23-4.37a1.19,1.19,0,0,0-.82-1.46l-6.08-1.7a1.17,1.17,0,0,0-1.45.82L329.05,198a1.17,1.17,0,0,0,.82,1.45Z" fill="#c9c9c9"></path><path d="M327.55,253.23l3-10.78-18-5.06-3.16,11.27a9.33,9.33,0,0,0-.12,4.57Z" fill="#c9c9c9"></path><rect x="229.36" y="174.47" width="8.23" height="78.23" fill="#D44927"></rect><rect x="273.83" y="174.47" width="8.23" height="78.23" fill="#D44927"></rect><rect x="229.36" y="174.47" width="8.23" height="78.23" opacity="0.08"></rect><rect x="273.83" y="174.47" width="8.23" height="78.23" opacity="0.08"></rect><rect x="219.62" y="184.18" width="72.21" height="25.47" fill="#D44927"></rect><polygon points="223.28 184.18 231.91 209.65 243.85 209.65 234.04 184.18 223.28 184.18" fill="#24285b"></polygon><polygon points="245.38 184.18 254.01 209.65 265.95 209.65 256.14 184.18 245.38 184.18" fill="#24285b"></polygon><polygon points="267.42 184.18 276.04 209.65 287.98 209.65 278.17 184.18 267.42 184.18" fill="#24285b"></polygon><rect x="219.62" y="219.3" width="72.21" height="11.94" fill="#D44927"></rect><polygon points="272.41 184.18 291.83 202.92 291.83 194 272.41 184.18" opacity="0.08"></polygon><path d="M145,75.41l17.29-2.34a.68.68,0,0,0,.29-1.23l-.74-.51a4,4,0,0,1-1.67-2.43c-.65-2.69-2.58-8.11-7.76-8.33-6.62-.29-13.15,4.67-9.19,13.83A1.69,1.69,0,0,0,145,75.41Z" fill="#ffd200"></path><path d="M143.5,69.37a7.53,7.53,0,0,1,2.92-6.1.54.54,0,0,1,.8.66,13.61,13.61,0,0,0-1.36,5.5,1.17,1.17,0,0,1-1,1.12h0A1.18,1.18,0,0,1,143.5,69.37Z" fill="#fff" opacity="0.31"></path><path d="M305.81,113.65A9.23,9.23,0,0,0,295,104.5a12.49,12.49,0,0,0-11-6.58l-.46,0a14.85,14.85,0,1,0-28.77,0l-.46,0a12.5,12.5,0,0,0,0,25h43.4v-.08A9.27,9.27,0,0,0,305.81,113.65Z" fill="#e6e6e6"></path><path d="M68.61,83.83A6.87,6.87,0,0,1,75.48,77a8,8,0,0,1,1.11.09,9.25,9.25,0,0,1,8.16-4.87h.34a10.6,10.6,0,0,1-.34-2.66,11,11,0,1,1,21.65,2.66h.34a9.26,9.26,0,1,1,0,18.52H74.59v-.06A6.88,6.88,0,0,1,68.61,83.83Z" fill="#e6e6e6"></path><path d="M144,174.74s5.37-28.54,5.37-44.31c0-23.31-8.44-33.26-8.44-33.26l3.5-1.12s7.32,11.93,19.35,9.39c11.2-2.35,8.36-13.22,8.31-13.38h3.24s10.44,8.54,12.89,22.29c4.16,23.3.55,56,.55,56Z" fill="#24285b"></path><rect x="140.56" y="170.38" width="47.69" height="6.04" fill="#c9c9c9"></rect><rect x="138.56" y="167.24" width="9.67" height="14.16" rx="2.11" fill="#ffd200"></rect><rect x="138.56" y="167.24" width="9.67" height="6.81" rx="2.11" fill="#fff" opacity="0.46"></rect><circle cx="143.4" cy="170.6" r="1.35" fill="#24285b"></circle><rect x="149.97" y="167.24" width="9.67" height="14.16" rx="2.11" fill="#ffd200"></rect><rect x="149.97" y="167.24" width="9.67" height="6.81" rx="2.11" fill="#fff" opacity="0.46"></rect><circle cx="154.8" cy="170.6" r="1.35" fill="#24285b"></circle><rect x="180.4" y="167.24" width="9.67" height="14.16" rx="2.11" fill="#ffd200"></rect><rect x="180.4" y="167.24" width="9.67" height="6.81" rx="2.11" fill="#fff" opacity="0.46"></rect><circle cx="185.23" cy="170.6" r="1.35" fill="#24285b"></circle><path d="M214.55,248.79s3.68-5.3-1.82-6.76,1.33-8.6-3.79-9.54-4.26,6.61-4.26,6.61-3.53-3-6-.48,1,5.36,1,5.36-4.93,1.7-1.86,4.81Z" fill="#e6e6e6"></path><path d="M207.16,249.49s2.34-4,5.78-3.51a3.21,3.21,0,0,1,3.08,3.51Z" fill="#c9c9c9"></path><path d="M184.79,132.76s-21.33,1.37-27.77,0l-.87,17.47s21.46,3,27.73.72Z" fill="#fff" opacity="0.2"></path></svg>