<svg id="Layer_1" data-name="Layer 1" xmlns="http://www.w3.org/2000/svg" viewBox="0 0 400 300" width="406" height="306" class="illustration styles_illustrationTablet__1DWOa"><title>_</title><ellipse cx="200" cy="246.94" rx="106.47" ry="14.47" fill="#e6e6e6" opacity="0.45"></ellipse><rect x="227.19" y="228.1" width="57.65" height="15.18" fill="#e6e6e6"></rect><rect x="214.59" y="213.25" width="57.65" height="15.18" fill="#e6e6e6" opacity="0.43"></rect><rect x="129.28" y="38.59" width="114.13" height="204.69" fill="#c9c9c9"></rect><rect x="138.73" y="61.92" width="94.47" height="144.05" fill="#fff"></rect><circle cx="186.69" cy="224.42" r="11.17" fill="#fff" opacity="0.56"></circle><rect x="176.69" y="46.59" width="32" height="4.67" opacity="0.12"></rect><circle cx="165.1" cy="49.43" r="5.21" fill="#fff"></circle><rect x="129.28" y="76.69" width="85.93" height="144.05" opacity="0.08"></rect><rect x="114.23" y="70.8" width="94.47" height="144.05" fill="#05668D"></rect><rect x="123.43" y="170.27" width="76.06" height="19.59" rx="9.8" opacity="0.08"></rect><path d="M136.21,175h3.06l-.25,2.09a11.15,11.15,0,0,1-.34,1.73q.52-.26.69-.36l.89-.46,1.92-.91.95,2.92-2.13.44a11.43,11.43,0,0,1-1.73.16,9.54,9.54,0,0,1,1.23,1.1l1.44,1.57-2.49,1.87-1-1.87c-.15-.27-.39-.79-.72-1.57a17.15,17.15,0,0,1-.72,1.57l-1,1.87-2.56-1.87,1.55-1.57a11,11,0,0,1,1.27-1.1c-.42,0-1-.12-1.67-.25l-2.15-.35,1-2.92,1.92.87c.21.1.71.38,1.51.86-.17-.77-.28-1.35-.33-1.73Z" fill="#fff"></path><path d="M152,175h3.06l-.25,2.09a10.19,10.19,0,0,1-.35,1.73,7.6,7.6,0,0,0,.7-.36c.38-.21.68-.36.88-.46l1.93-.91,1,2.92-2.13.44a11.58,11.58,0,0,1-1.73.16,9.54,9.54,0,0,1,1.23,1.1l1.44,1.57-2.49,1.87-1-1.87c-.15-.27-.39-.79-.72-1.57a17.15,17.15,0,0,1-.72,1.57l-1,1.87-2.56-1.87,1.55-1.57a11,11,0,0,1,1.27-1.1c-.42,0-1-.12-1.67-.25l-2.15-.35,1-2.92,1.92.87c.2.1.71.38,1.51.86a15.57,15.57,0,0,1-.33-1.73Z" fill="#fff"></path><path d="M167.81,175h3.06l-.25,2.09a11.28,11.28,0,0,1-.35,1.73q.53-.26.69-.36l.89-.46,1.92-.91,1,2.92-2.13.44a11.72,11.72,0,0,1-1.73.16,11.11,11.11,0,0,1,1.23,1.1l1.44,1.57-2.49,1.87-1-1.87c-.15-.27-.39-.79-.72-1.57a17.15,17.15,0,0,1-.72,1.57l-1,1.87L165,183.27l1.55-1.57a11.09,11.09,0,0,1,1.28-1.1c-.43,0-1-.12-1.68-.25L164,180l1-2.92,1.93.87c.2.1.7.38,1.51.86-.18-.77-.29-1.35-.34-1.73Z" fill="#fff"></path><path d="M183.6,175h3.06l-.25,2.09a11.15,11.15,0,0,1-.34,1.73q.52-.26.69-.36l.89-.46,1.92-.91,1,2.92-2.13.44a11.43,11.43,0,0,1-1.73.16,9.54,9.54,0,0,1,1.23,1.1l1.44,1.57-2.49,1.87-1-1.87c-.15-.27-.39-.79-.72-1.57a17.15,17.15,0,0,1-.72,1.57l-1,1.87-2.56-1.87,1.55-1.57a11,11,0,0,1,1.27-1.1c-.42,0-1-.12-1.67-.25l-2.15-.35,1-2.92,1.92.87c.21.1.71.38,1.51.86-.17-.77-.28-1.35-.33-1.73Z" fill="#fff"></path><rect x="132.39" y="124.52" width="55.71" height="37.11" fill="#ffd200"></rect><path d="M144.6,124.52V113a15.46,15.46,0,0,1,15.46-15.46h0A15.47,15.47,0,0,1,175.53,113v11.51" fill="none" stroke="#fff" stroke-miterlimit="10" stroke-width="4"></path><circle cx="160.25" cy="138.5" r="7.44" fill="#24285b"></circle><rect x="157.35" y="141.93" width="5.8" height="13.38" fill="#24285b"></rect><path d="M256.23,203.43s-8-2.19-9.76-9.64c0,0,12.41-2.51,12.77,10.3Z" fill="#05668D" opacity="0.58"></path><path d="M257.21,202.64s-5.6-8.85-.67-17.12c0,0,9.43,6,5.24,17.14Z" fill="#05668D" opacity="0.73"></path><path d="M258.65,202.64s3-9.34,11.89-11.11c0,0,1.68,6.07-5.78,11.14Z" fill="#05668D"></path><polygon points="252.84 202.43 254.46 213.54 264.69 213.58 266.2 202.49 252.84 202.43" fill="#24285b"></polygon><rect x="219.22" y="96.48" width="24.19" height="47.6" opacity="0.08"></rect><rect x="222.28" y="93.33" width="48.39" height="47.6" fill="#24285b"></rect><path d="M246.47,101.78s-4,5.21-13.27,6.32v13.15c0,7.44,13.27,11.24,13.27,11.24s13.27-3.8,13.27-11.24V108.1C250.44,107,246.47,101.78,246.47,101.78Z" fill="#ffd200"></path><polyline points="240 117.13 244.18 121.81 253.88 112.45" fill="none" stroke="#fff" stroke-miterlimit="10" stroke-width="4"></polyline><rect x="219.41" y="56.63" width="38.66" height="27.57" fill="#e6e6e6"></rect><path d="M238.54,61.93a14.77,14.77,0,0,1,5.57,1,13.82,13.82,0,0,1,4.14,2.48c.48.42.93.86,1.37,1.31a1.5,1.5,0,0,1-2.07,2.17c-.45-.4-.86-.85-1.32-1.24a11.34,11.34,0,0,0-14-.5,16,16,0,0,0-2,1.79,1.83,1.83,0,0,1-1.06.62,1.54,1.54,0,0,1-1.49-.7,1.42,1.42,0,0,1,.11-1.72,16.65,16.65,0,0,1,2.9-2.6,14.31,14.31,0,0,1,7.85-2.58Z" fill="#fff"></path><path d="M239.27,67.38a8.87,8.87,0,0,1,3.44.87,9.28,9.28,0,0,1,3.13,2.46,1.6,1.6,0,0,1,0,2.09,1.54,1.54,0,0,1-1.94.39,6,6,0,0,1-1.07-.88,5.27,5.27,0,0,0-5.11-1.43,5.66,5.66,0,0,0-2.77,1.69,5,5,0,0,1-1,.88,1.59,1.59,0,0,1-2-.32,1.62,1.62,0,0,1-.13-2.06,11.68,11.68,0,0,1,1.08-1.15,9.54,9.54,0,0,1,1.67-1.29,8.47,8.47,0,0,1,3.19-1.13C238.27,67.43,238.77,67.42,239.27,67.38Z" fill="#fff"></path><path d="M241.42,76.23a2.63,2.63,0,1,1-2.67-2.58A2.61,2.61,0,0,1,241.42,76.23Z" fill="#fff"></path></svg>