<svg xmlns="http://www.w3.org/2000/svg" version="1.1" xmlns:xlink="http://www.w3.org/1999/xlink" xmlns:svgjs="http://svgjs.com/svgjs" width="1440" height="800" preserveAspectRatio="none" viewBox="0 0 1440 800"><g mask="url(&quot;#SvgjsMask1096&quot;)" fill="none"><rect width="1440" height="800" x="0" y="0" fill="rgba(254, 248, 236, 1)"></rect><path d="M0,511.514C108.417,515.688,233.827,563.435,318.501,495.598C404.046,427.063,369.3,288.765,406.662,185.716C439.954,93.894,542.242,20.673,525.589,-75.568C508.911,-171.953,391.301,-209.663,325.694,-282.216C261.938,-352.722,231.689,-455.54,145.582,-495.807C55.103,-538.119,-56.164,-543.209,-147.895,-503.685C-236.573,-465.477,-262.915,-354.802,-333.814,-289.251C-417.341,-212.024,-562.515,-193.783,-599.451,-86.188C-636.131,20.659,-566.631,134.804,-513.636,234.57C-463.03,329.837,-398.072,420.47,-303.121,471.666C-211.566,521.031,-103.939,507.512,0,511.514" fill="#fdefd5"></path><path d="M1440 1219.355C1518.007 1207.374 1584.33 1168.225 1657.2640000000001 1138.07 1748.374 1100.401 1877.892 1108.298 1921.943 1020.096 1965.658 932.566 1861.048 837.899 1855.979 740.191 1850.124 627.341 1960.5439999999999 498.33 1890.282 409.828 1821.078 322.659 1673.569 398.922 1565.132 373.84 1465.837 350.872 1383.973 248.49800000000005 1284.276 269.654 1184.468 290.833 1123.067 392.135 1069.551 479.004 1021.841 556.45 997.77 645.322 996.812 736.279 995.935 819.552 1035.138 893.566 1064.364 971.547 1095.988 1055.925 1099.933 1162.496 1175.149 1212.116 1250.393 1261.754 1350.903 1233.039 1440 1219.355" fill="#ffffff"></path></g><defs><mask id="SvgjsMask1096"><rect width="1440" height="800" fill="#ffffff"></rect></mask></defs></svg>