<svg width="400" height="400" viewBox="0 0 400 400" fill="none" xmlns="http://www.w3.org/2000/svg">
<rect x="77" y="35" width="246" height="329.333" rx="8" stroke="#464844" stroke-width="4"/>
<path d="M75 43C75 37.4772 79.4772 33 85 33H313C318.523 33 323 37.4772 323 43V113H75V43Z" fill="#464844"/>
<path fill-rule="evenodd" clip-rule="evenodd" d="M152.614 246.272C152.614 222.324 131.857 202.95 106.198 202.95C104.036 202.95 102.018 203.085 100 203.354C100.288 173.217 126.379 149 158.524 149C190.958 149 217.193 173.486 217.193 203.623C217.193 215.462 213.013 227.033 205.373 236.45C204.652 237.392 203.787 238.334 203.067 239.276C192.832 251.788 186.634 267.529 186.634 284.481C186.634 294.975 188.94 304.931 193.12 313.945C168.903 307.353 151.317 286.499 151.317 261.878C151.317 256.497 152.614 251.384 152.614 246.272ZM278.889 231.472C278.889 233.76 276.871 235.643 274.42 235.643C271.826 235.643 269.808 233.76 269.808 231.472C269.808 229.051 271.826 227.167 274.42 227.167C276.871 227.167 278.889 229.051 278.889 231.472ZM199.463 284.481C199.463 255.017 221.373 230.396 250.636 223.669C256.546 205.775 264.33 212.637 273.411 221.786C281.339 222.593 288.835 225.015 295.034 230.396C298.781 233.76 301.376 237.392 299.214 242.236C294.457 253.402 269.808 250.039 266.925 254.21C267.213 256.766 267.501 259.322 267.501 261.878C267.501 291.342 241.266 316.098 209.409 316.098C209.121 316.098 208.832 316.098 208.688 316.098C202.778 306.814 199.463 296.051 199.463 284.481Z" fill="#D44927"/>
</svg>
