<svg width="10" height="10" viewBox="0 0 10 10" fill="none" xmlns="http://www.w3.org/2000/svg">
<path fill-rule="evenodd" clip-rule="evenodd" d="M3.81311 6.15439C3.81433 5.5557 3.29637 5.07031 2.65491 5.069C2.60086 5.0689 2.5504 5.07216 2.49993 5.07878C2.50867 4.32538 3.16217 3.72128 3.96579 3.72291C4.77663 3.72455 5.43126 4.33803 5.42974 5.09145C5.42914 5.38743 5.32404 5.67648 5.13257 5.91153C5.1145 5.93504 5.09283 5.95854 5.07477 5.98205C4.81827 6.29433 4.66251 6.68755 4.66165 7.11134C4.66112 7.37369 4.71828 7.62271 4.82233 7.84827C4.21724 7.68223 3.77864 7.16 3.77989 6.54449C3.78016 6.40995 3.81285 6.28221 3.81311 6.15439ZM6.97072 5.79081C6.9706 5.84799 6.92005 5.89498 6.85879 5.89485C6.79392 5.89472 6.74357 5.84753 6.74368 5.79035C6.7438 5.72981 6.79435 5.68282 6.85922 5.68295C6.92048 5.68308 6.97084 5.73027 6.97072 5.79081ZM4.98238 7.11199C4.98388 6.37539 5.53289 5.76099 6.26478 5.5943C6.41344 5.14726 6.6077 5.31919 6.83427 5.54836C7.03243 5.56895 7.2197 5.62987 7.37439 5.76472C7.46791 5.849 7.5326 5.93994 7.47829 6.06092C7.35881 6.33984 6.74274 6.25451 6.67046 6.35863C6.67753 6.42255 6.68461 6.48647 6.68448 6.55038C6.68299 7.28698 6.02586 7.90453 5.22944 7.90291C5.22223 7.9029 5.21502 7.90288 5.21142 7.90287C5.06414 7.6705 4.9818 7.40125 4.98238 7.11199Z" fill="#AEB4A9"/>
<rect x="1.75" y="0.75" width="6.5" height="8.5" stroke="#464844" stroke-width="0.5"/>
<rect x="2" y="1" width="6" height="2" fill="#7A7E76"/>
</svg>
