<svg id="Layer_1" data-name="Layer 1" xmlns="http://www.w3.org/2000/svg" viewBox="0 0 400 300" width="406" height="306" class="illustration styles_illustrationTablet__1DWOa"><path d="M104.34,224.49h-.08c-1-.08-2-.2-3-.35a1,1,0,0,1,.29-2q1.45.21,2.91.33a1,1,0,0,1-.08,2Zm10-.38a1,1,0,0,1-.15-2c.95-.15,1.92-.34,2.87-.57a1,1,0,0,1,1.2.75,1,1,0,0,1-.74,1.2c-1,.24-2,.44-3,.6Zm-22.6-2.44a1,1,0,0,1-.34-.06c-1-.35-1.9-.73-2.84-1.13a1,1,0,1,1,.79-1.84c.9.39,1.83.75,2.74,1.09a1,1,0,0,1-.35,1.94Zm34.93-1.54a1,1,0,0,1-.9-.56,1,1,0,0,1,.45-1.34c.87-.42,1.74-.89,2.59-1.38a1,1,0,0,1,1.37.37,1,1,0,0,1-.37,1.36c-.89.51-1.8,1-2.7,1.45A1,1,0,0,1,126.63,220.13Zm-46.54-4.26a1,1,0,0,1-.54-.15c-.85-.54-1.7-1.11-2.53-1.69a1,1,0,0,1-.25-1.39,1,1,0,0,1,1.39-.25c.81.57,1.63,1.11,2.46,1.64a1,1,0,0,1-.53,1.84ZM137.43,213a1,1,0,0,1-.76-.36,1,1,0,0,1,.11-1.41L137,211c.66-.57,1.33-1.16,2-1.78a1,1,0,0,1,1.36,1.47c-.7.64-1.38,1.25-2.06,1.83l-.23.19A1,1,0,0,1,137.43,213Zm-67.64-5a1,1,0,0,1-.67-.26c-.75-.69-1.49-1.39-2.2-2.09a1,1,0,0,1,1.4-1.43c.7.69,1.42,1.37,2.15,2a1,1,0,0,1,.06,1.42A1,1,0,0,1,69.79,208Zm76.91-4.11a1,1,0,0,1-.67-.26,1,1,0,0,1-.07-1.41c.66-.73,1.33-1.47,2-2.23a1,1,0,1,1,1.5,1.32c-.68.77-1.35,1.52-2,2.25A1,1,0,0,1,146.7,203.84ZM61,198.43a1,1,0,0,1-.79-.38c-.64-.81-1.25-1.62-1.84-2.43a1,1,0,0,1,.23-1.4,1,1,0,0,1,1.39.23c.58.79,1.17,1.58,1.79,2.36a1,1,0,0,1-.78,1.62ZM155.18,194a1,1,0,0,1-.64-.23,1,1,0,0,1-.14-1.4c.63-.77,1.26-1.54,1.89-2.33a1,1,0,0,1,1.41-.15,1,1,0,0,1,.15,1.4l-1.9,2.34A1,1,0,0,1,155.18,194Zm-101.3-6.42A1,1,0,0,1,53,187c-.48-.93-.93-1.86-1.33-2.76a1,1,0,0,1,.51-1.32,1,1,0,0,1,1.32.51c.39.86.82,1.76,1.28,2.65a1,1,0,0,1-.44,1.35A1,1,0,0,1,53.88,187.54Zm109.4-3.77a1,1,0,0,1-.79-1.61l1.84-2.37a1,1,0,1,1,1.58,1.22l-1.84,2.37A1,1,0,0,1,163.28,183.77Zm-113.53-8.5a1,1,0,0,1-1-.86c-.14-1-.23-2.07-.27-3.09a1,1,0,0,1,1-1,1,1,0,0,1,1,1,27.74,27.74,0,0,0,.25,2.88,1,1,0,0,1-.86,1.13Zm121.48-1.81a1,1,0,0,1-.8-1.61l1.83-2.38a1,1,0,0,1,1.59,1.21L172,173.07A1,1,0,0,1,171.23,173.46ZM336,168a1.35,1.35,0,0,1-.28,0,1,1,0,0,1-.68-1.24c.25-.88.52-1.84.79-2.87a1,1,0,0,1,1.22-.72,1,1,0,0,1,.71,1.23c-.27,1-.54,2-.8,2.91A1,1,0,0,1,336,168Zm-156.87-4.82a1,1,0,0,1-.61-.21,1,1,0,0,1-.18-1.4l1.83-2.38a1,1,0,1,1,1.59,1.23l-1.84,2.37A1,1,0,0,1,179.15,163.13Zm-128.34-.71a1,1,0,0,1-.29,0,1,1,0,0,1-.66-1.25c.29-1,.64-1.95,1-2.91a1,1,0,1,1,1.85.75c-.36.91-.69,1.83-1,2.74A1,1,0,0,1,50.81,162.42ZM339,155.29a.58.58,0,0,1-.19,0,1,1,0,0,1-.8-1.16c.18-1,.35-1.94.52-2.94a1,1,0,1,1,2,.33c-.17,1-.34,2-.52,3A1,1,0,0,1,339,155.29Zm-151.87-2.43a1,1,0,0,1-.79-1.62l1.87-2.36a1,1,0,1,1,1.56,1.25l-1.86,2.35A1,1,0,0,1,187.15,152.86ZM56.74,150.92a1,1,0,0,1-.59-.2,1,1,0,0,1-.21-1.39c.6-.81,1.24-1.62,1.9-2.41a1,1,0,1,1,1.53,1.29c-.64.75-1.25,1.53-1.82,2.3A1,1,0,0,1,56.74,150.92Zm138.55-8.21a1,1,0,0,1-.63-.23,1,1,0,0,1-.14-1.4l1.91-2.32A1,1,0,1,1,198,140l-1.9,2.31A1,1,0,0,1,195.29,142.71Zm145.47-.3h-.08a1,1,0,0,1-.92-1.07c.08-1,.14-2,.2-3a1,1,0,0,1,1.05-1,1,1,0,0,1,.94,1.05c-.05,1-.12,2-.2,3A1,1,0,0,1,340.76,142.41Zm-275-.85a1,1,0,0,1-.63-1.78c1.49-1.2,2.45-1.84,2.49-1.87a1,1,0,0,1,1.1,1.67s-.93.62-2.33,1.75A1,1,0,0,1,65.74,141.56Zm137.93-8.81a1,1,0,0,1-.75-1.65c.65-.76,1.31-1.52,2-2.27a1,1,0,1,1,1.5,1.32c-.66.75-1.32,1.5-2,2.26A1,1,0,0,1,203.67,132.75ZM341,129.41a1,1,0,0,1-1-.94c-.06-1-.13-2-.22-3a1,1,0,1,1,2-.18c.09,1,.17,2,.22,3a1,1,0,0,1-.94,1Zm-128.6-6.35a1,1,0,0,1-.68-.27,1,1,0,0,1-.05-1.41c.68-.74,1.37-1.47,2.06-2.19a1,1,0,0,1,1.45,1.37l-2,2.18A1,1,0,0,1,212.36,123.06Zm126.79-6.51a1,1,0,0,1-1-.76c-.23-1-.48-1.93-.76-2.85a1,1,0,0,1,.68-1.24,1,1,0,0,1,1.24.67c.28,1,.55,1.95.79,2.95a1,1,0,0,1-.74,1.21Zm-117.72-2.81a1,1,0,0,1-.7-1.71l2.17-2.1a1,1,0,0,1,1.42,0,1,1,0,0,1,0,1.41c-.72.68-1.43,1.38-2.15,2.08A1,1,0,0,1,221.43,113.74Zm9.57-8.82a1,1,0,0,1-.66-1.75l2.3-2a1,1,0,0,1,1.29,1.54c-.76.63-1.52,1.28-2.28,1.93A1,1,0,0,1,231,104.92Zm103.66-.53a1,1,0,0,1-.88-.54c-.46-.87-.94-1.73-1.45-2.56a1,1,0,0,1,.34-1.37,1,1,0,0,1,1.37.34c.53.86,1,1.76,1.51,2.66a1,1,0,0,1-.89,1.47Zm-93.5-7.58a1,1,0,0,1-.81-.41,1,1,0,0,1,.21-1.4c.82-.6,1.64-1.18,2.46-1.76a1,1,0,0,1,1.15,1.64l-2.42,1.73A1,1,0,0,1,241.16,96.81Zm85.9-2.9a1,1,0,0,1-.71-.3q-1-1-2.13-2a1,1,0,0,1-.09-1.41,1,1,0,0,1,1.41-.09c.76.67,1.51,1.38,2.23,2.11a1,1,0,0,1,0,1.41A1,1,0,0,1,327.06,93.91Zm-75-4.24a1,1,0,0,1-.87-.5,1,1,0,0,1,.36-1.36c.88-.51,1.76-1,2.64-1.48a1,1,0,1,1,1,1.75c-.87.47-1.73,1-2.59,1.46A1,1,0,0,1,252,89.67Zm64.68-3.52a.94.94,0,0,1-.48-.13c-.84-.46-1.72-.91-2.62-1.33a1,1,0,0,1,.86-1.81c.93.44,1.84.91,2.72,1.39a1,1,0,0,1-.48,1.88Zm-53.05-2.22a1,1,0,0,1-.37-1.93c.94-.38,1.88-.74,2.83-1.08a1,1,0,0,1,.68,1.88c-.92.33-1.84.68-2.76,1.06A1,1,0,0,1,263.65,83.93Zm41.05-2.7a1.45,1.45,0,0,1-.29,0c-.94-.28-1.9-.54-2.85-.76a1,1,0,0,1,.47-2c1,.24,2,.5,3,.79a1,1,0,0,1-.28,2ZM276,80.12a1,1,0,0,1-1-.79,1,1,0,0,1,.78-1.19c1-.2,2-.39,3-.54a1,1,0,0,1,.31,2c-1,.15-1.93.33-2.9.53A.68.68,0,0,1,276,80.12ZM291.93,79h-.07c-1-.06-2-.1-2.94-.11a1,1,0,0,1-1-1,1,1,0,0,1,1-1c1,0,2,.05,3.05.11a1,1,0,0,1-.06,2Z" fill="#e6e6e6"></path><polygon points="271.64 236.53 156.75 236.53 179.44 51.71 281.9 51.71 292.6 65.84 271.64 236.53" fill="#c1c1c1"></polygon><polygon points="259.21 236.53 144.31 236.53 167 51.71 281.9 51.71 259.21 236.53" fill="#e6e6e6"></polygon><polygon points="253.55 201.46 157.55 201.46 173.92 68.19 269.92 68.19 253.55 201.46" fill="#fff"></polygon><polygon points="221.17 143.28 248.91 143.61 248.37 147.9 221.17 147.43 221.17 143.28" fill="#e6e6e6"></polygon><polygon points="144.31 236.53 158.13 249.29 269.92 250.99 271.64 236.53 144.31 236.53" fill="#c1c1c1"></polygon><path d="M233,104.25s4.79.34,7.24,9.35,1.61,34.16,1.61,34.16l-20.66-.33S210.88,110,233,104.25Z" fill="#24285b"></path><rect x="67.46" y="73.75" width="96.82" height="62.55" transform="translate(-40.29 96.58) rotate(-39.09)" fill="#ffd200"></rect><rect x="98.07" y="76.17" width="43.35" height="10.33" transform="translate(-24.48 93.72) rotate(-39.09)" fill="#fff"></rect><rect x="92.2" y="129.01" width="23.14" height="10.33" rx="3.82" transform="translate(-61.38 95.47) rotate(-39.09)" fill="#fff" opacity="0.46"></rect><rect x="111.55" y="102.04" width="50.85" height="10.33" rx="3.82" transform="translate(-36.94 110.37) rotate(-39.09)" fill="#fff" opacity="0.46"></rect><circle cx="81.88" cy="112.76" r="6.84" fill="#fff" opacity="0.3"></circle><circle cx="88.82" cy="106.53" r="6.84" fill="#fff" opacity="0.3"></circle><path d="M233,104.25s-10.87,3.91-7.08,34.54c2.78,22.44-6.61,52.15-20.49,52.51s-39.48-.86-39.48-.86,13.33-34.5,10.57-63.47a27.44,27.44,0,0,1,1.42-12c1.62-4.41,4.63-9,10.23-9.75C199.35,103.7,233,104.25,233,104.25Z" fill="#05668D"></path><path d="M158.26,192.68l49.05-1s-7.48-7.42-7.95-26.31l-67.47,1a58.48,58.48,0,0,0,5.29,14A23.37,23.37,0,0,0,158.26,192.68Z" fill="#05668D"></path><path d="M158.26,192.68l49.05-1s-7.48-7.42-7.95-26.31l-67.47,1a58.48,58.48,0,0,0,5.29,14A23.37,23.37,0,0,0,158.26,192.68Z" fill="#fff" opacity="0.44"></path><polygon points="194.11 77.81 192.4 89.04 241.97 89.04 243.47 77.81 194.11 77.81" fill="#24285b"></polygon><path d="M207.76,210.45c-5.35-4.68-13.81-3.76-17.59,2.27a9.2,9.2,0,0,0-1.49,4.92c0,7.4,5.11,12.25,15.32,10.21C211.79,226.29,214.76,216.56,207.76,210.45Z" fill="#fff" opacity="0.48"></path><circle cx="321.3" cy="209.28" r="27.58" fill="#ffd200"></circle><circle cx="321.3" cy="209.28" r="27.58" opacity="0.09"></circle><circle cx="322.55" cy="201.81" r="27.58" fill="#ffd200"></circle><path d="M326.5,185.22c.92.15,1.15.52,1,1.44l-.33,2c3.6,1.13,5.41,3.33,6.43,6.8.32,1,0,1.53-1.13,1.83l-2.11.55c-1,.29-1.4,0-1.76-1a5.09,5.09,0,0,0-4.61-3.94c-3.4-.57-5.13.17-5.52,2.45-.24,1.48,1,2.63,2.32,3.15a23.75,23.75,0,0,0,2.81.92,19.16,19.16,0,0,1,5.15,1.94A7.4,7.4,0,0,1,330.9,203a7.84,7.84,0,0,1,1.18,6c-.73,4.36-4.15,6.84-9.44,6.73l-.35,2.09c-.16.92-.49,1.19-1.41,1l-2.21-.37c-.92-.16-1.18-.53-1-1.45l.34-2c-3.92-1.2-6.26-3.69-7-7.52-.17-.93.25-1.48,1.24-1.68l2.08-.4c1.06-.19,1.46.13,1.73,1.2.51,2.39,2.12,3.82,4.85,4.27,3.68.62,5.72-.23,6.12-2.6a2.5,2.5,0,0,0-1.31-2.77,14.23,14.23,0,0,0-3.84-1.43,17.54,17.54,0,0,1-5.17-2.06,7.58,7.58,0,0,1-2.1-1.71,7.39,7.39,0,0,1-1.25-5.81c.72-4.32,3.93-6.75,9.17-6.57l.33-2c.15-.92.53-1.18,1.45-1Z" fill="#fff"></path><path d="M185.77,116.69a1,1,0,0,1-.07-2c.21,0,21.12-1.54,32.33-.54a1,1,0,0,1-.18,2c-11-1-31.8.51-32,.53Z" fill="#fff"></path><path d="M184.11,130.22a1,1,0,0,1-.07-2c.21,0,21.12-1.54,32.33-.54a1,1,0,0,1-.18,2c-11-1-31.79.52-32,.53Z" fill="#fff"></path><path d="M183.92,144.28a1,1,0,0,1-.08-2c.21,0,21.13-1.54,32.33-.54a1,1,0,1,1-.18,2c-11-1-31.79.52-32,.53Z" fill="#fff"></path><path d="M182.59,158.34a1,1,0,0,1-.07-2c.21,0,21.12-1.54,32.33-.53a1,1,0,1,1-.18,2c-11-1-31.79.52-32,.53Z" fill="#fff"></path></svg>