<svg id="Layer_1" data-name="Layer 1" xmlns="http://www.w3.org/2000/svg" viewBox="0 0 400 300" width="406" height="306" class="illustration styles_illustrationTablet__1DWOa"><title>#34 wallet</title><path d="M154.13,59.14S151.2,65.35,150.7,70a3.45,3.45,0,0,0,3.09,3.79c2.35.22,5.6-.17,7.58-3.31l4-4.92a6.15,6.15,0,0,0-.26-7.12C162.44,54.51,155.73,55.26,154.13,59.14Z" fill="#f4a28c"></path><polygon points="163.86 66.71 165.48 89.16 153.04 89.17 156.76 73.24 163.86 66.71" fill="#f4a28c"></polygon><path d="M155.63,60a27.72,27.72,0,0,0,6.11,1.74,5.72,5.72,0,0,0-2.18,5.89,4.67,4.67,0,0,0,4.64,3.7l3-8.32A7,7,0,0,0,166,55.93a26.41,26.41,0,0,0-2.26-2.37c-2-1.84-6.11-1.54-7.65-3.94a1.66,1.66,0,0,0-2.84.11c-1.31,2.38-2.32,6.51.58,9.14A6.41,6.41,0,0,0,155.63,60Z" fill="#24285b"></path><path d="M158.94,67.18s1-2.46,2.76-1.58.42,4.45-2.24,3.85Z" fill="#f4a28c"></path><path d="M152.49,63.15,149.77,65a1.1,1.1,0,0,0,0,1.86l2.29,1.37Z" fill="#f4a28c"></path><path d="M156.66,73.69a8.42,8.42,0,0,0,4.05-1.94s.8,4.87-5.12,6.5Z" fill="#ce8172" opacity="0.31"></path><circle cx="248.72" cy="55.51" r="33.85" fill="#24285b"></circle><polygon points="223.35 63.71 200.04 80.52 232.41 74.71 223.35 63.71" fill="#24285b"></polygon><path d="M84.73,92.54s-28.31,54.79-6,65.79,68.14-42.83,68.14-42.83L133.49,88.44S103.19,106,89.36,135.33L91.69,90.2Z" fill="#d44927"></path><path d="M84.73,92.54s-28.31,54.79-6,65.79,68.14-42.83,68.14-42.83L133.49,88.44S103.19,106,89.36,135.33L91.69,90.2Z" fill="#fff" opacity="0.2"></path><ellipse cx="216.51" cy="260.22" rx="146.35" ry="23.76" fill="#e6e6e6" opacity="0.45"></ellipse><rect x="179.78" y="129.36" width="142.85" height="104.29" rx="9.75" ry="9.75" fill="#c9c9c9"></rect><circle cx="77.83" cy="55.61" r="32.09" fill="#d36820"></circle><circle cx="77.83" cy="55.61" r="32.09" fill="#ffd200"></circle><circle cx="77.83" cy="55.61" r="32.09" opacity="0.08"></circle><circle cx="86.96" cy="52.09" r="32.09" fill="#ffd200"></circle><circle cx="86.96" cy="52.09" r="21.92" fill="#fff" opacity="0.33"></circle><rect x="179.78" y="141.23" width="142.85" height="119.4" rx="13.47" ry="13.47" fill="#e6e6e6"></rect><path d="M235.14,129.36h24s13.21,61.51-29.25,76.39-16,54.88-16,54.88h-23.1l-7.45-9.38V223.08L177.61,195l13.15-52.49,14.1-11.75Z" opacity="0.08"></path><rect x="268.32" y="184.03" width="65.45" height="34.52" rx="14.09" ry="14.09" fill="#a5a5a5"></rect><circle cx="284.48" cy="201.15" r="7.58" fill="#e6e6e6"></circle><path d="M127.74,93.13A17.19,17.19,0,0,1,140,86.64c10.31-.73,37.76,2.76,53.89,12.7,22.6,13.92,26.4,31.74-10.56,89.95l-39-2.29S100.93,126.94,127.74,93.13Z" fill="#d44927"></path><path d="M174.86,107.36s-8.34,19.64,2.75,37-19.44,43.48-19.44,43.48L182,189.29l4.58-5.24s17.48-28.73,21-41-17.28-18.87-17.28-18.87Z" opacity="0.08"></path><path d="M175.56,120.42c-6.8-12.07,5.36-26,18.31-21.08,20.87,7.93,51.92,25.52,46.89,59-7.47,49.77-45.21,34.42-45.21,34.42l-.4-9.93s24.07.55,24.31-24C219.64,140.72,185.81,138.62,175.56,120.42Z" fill="#d44927"></path><path d="M175.56,120.42c-6.8-12.07,5.36-26,18.31-21.08,20.87,7.93,51.92,25.52,46.89,59-7.47,49.77-45.21,34.42-45.21,34.42l-.4-9.93s24.07.55,24.31-24C219.64,140.72,185.81,138.62,175.56,120.42Z" fill="#fff" opacity="0.2"></path><path d="M144.28,187l6.61,68h9.86l2-40.08a22.38,22.38,0,0,1,8.83-16.72l11.77-8.91Z" fill="#24285b"></path><polygon points="183.31 189.29 191.86 255 181.37 256.87 166.37 202.12 155.59 194.99 183.31 189.29" fill="#24285b"></polygon><path d="M91.69,90.2s-1.94-6.53-13-6.2S73.36,98.73,91.69,90.2Z" fill="#f4a28c"></path><path d="M195.15,182.83s-13.19-.52-13.61,6.83,3.82,9.8,8.82,9.45-1.66-4.4,4.79-8.13Z" fill="#f4a28c"></path><path d="M153.9,255s-1.06,4.43-4.87,5.18-4.4,4.62-.83,5.22,12-4.84,12-4.84l-.87-5.52Z" fill="#d44927"></path><path d="M188.62,255.55s1.92,4.13,5.8,4.11,5.24,3.66,1.86,4.95-12.72-2.36-12.72-2.36l-.25-5.58Z" fill="#d44927"></path><path d="M250,35.59c1,0,1.31.35,1.31,1.35v2.14c4,.57,6.32,2.57,8,6.06.52,1,.3,1.61-.88,2.13l-2.13,1c-1,.48-1.48.26-2-.78a5.46,5.46,0,0,0-5.58-3.36c-3.7,0-5.4,1.09-5.4,3.57,0,1.62,1.48,2.62,3,2.92a23.58,23.58,0,0,0,3.14.48,20.6,20.6,0,0,1,5.8,1.14,7.76,7.76,0,0,1,2.57,1.39,8.4,8.4,0,0,1,2.31,6.1c0,4.75-3.18,8-8.8,8.81v2.26c0,1-.31,1.35-1.31,1.35h-2.4c-1,0-1.35-.35-1.35-1.35V68.54c-4.36-.57-7.28-2.79-8.72-6.71a1.43,1.43,0,0,1,1-2l2.13-.78c1.09-.39,1.57-.13,2.05,1q1.44,3.66,5.88,3.66c4,0,6-1.27,6-3.84a2.66,2.66,0,0,0-1.88-2.7,15,15,0,0,0-4.31-.83A19.22,19.22,0,0,1,242.55,55,8.12,8.12,0,0,1,240,53.59a8,8,0,0,1-2.35-5.93c0-4.7,3-7.84,8.54-8.58V36.94c0-1,.35-1.35,1.35-1.35Z" fill="#ffd200"></path></svg>