<svg xmlns="http://www.w3.org/2000/svg" version="1.1" xmlns:xlink="http://www.w3.org/1999/xlink" xmlns:svgjs="http://svgjs.com/svgjs" width="1440" height="1200" preserveAspectRatio="none" viewBox="0 0 1440 1200"><g mask="url(&quot;#SvgjsMask1087&quot;)" fill="none"><rect width="1440" height="1200" x="0" y="0" fill="rgba(254, 248, 236, 1)"></rect><path d="M0,464.884C95.642,475.131,195.432,481.001,281.434,437.919C371.864,392.619,452.172,317.208,485.453,221.699C517.786,128.912,458.43,32.551,456.925,-65.696C455.116,-183.756,543.557,-315.575,475.741,-412.232C409.235,-507.021,258.101,-468.343,148.406,-505.423C32.435,-544.624,-65.048,-648.909,-186.802,-636.19C-313.67,-622.937,-419.762,-532.495,-504.567,-437.21C-590.106,-341.1,-679.852,-224.061,-667.591,-95.985C-655.487,30.447,-527.485,107.334,-443.329,202.462C-383.126,270.514,-323.365,335.218,-245.176,381.501C-169.356,426.381,-87.606,455.498,0,464.884" fill="#fdefd5"></path><path d="M1440 1897.636C1570.641 1928.917 1716.036 1876.5059999999999 1820.437 1791.972 1921.095 1710.469 1950.286 1574.57 1990.888 1451.5819999999999 2027.443 1340.854 2046.399 1229.669 2044.5610000000001 1113.077 2042.491 981.7280000000001 2059.943 836.37 1979.5529999999999 732.475 1898.368 627.553 1755.8020000000001 591.592 1624.81 570.596 1504.294 551.279 1388.266 591.375 1269.294 618.629 1142.13 647.76 974.5889999999999 625.876 904.151 735.684 831.664 848.685 957.8820000000001 995.096 942.268 1128.437 927.314 1256.136 765.378 1366.772 816.431 1484.774 867.167 1602.042 1054.495 1563.5430000000001 1161.033 1634.0810000000001 1269.903 1706.163 1313.019 1867.231 1440 1897.636" fill="#ffffff"></path></g><defs><mask id="SvgjsMask1087"><rect width="1440" height="1200" fill="#ffffff"></rect></mask></defs></svg>