<svg xmlns="http://www.w3.org/2000/svg" version="1.1" xmlns:xlink="http://www.w3.org/1999/xlink" xmlns:svgjs="http://svgjs.com/svgjs" width="1440" height="560" preserveAspectRatio="none" viewBox="0 0 1440 560"><g mask="url(&quot;#SvgjsMask1033&quot;)" fill="none"><rect width="1440" height="560" x="0" y="0" fill="rgba(2, 41, 56, 1)"></rect><path d="M0,404.081C84.398,420.62,185.975,447.417,252.539,392.959C320.063,337.716,278.442,223.03,316.973,144.757C357.364,62.706,484.241,22.347,479.949,-69.006C475.758,-158.216,365.61,-199.856,298.04,-258.253C240.242,-308.204,188.794,-374.173,113.304,-385.876C40.177,-397.213,-26.54,-350.138,-93.661,-318.979C-151.376,-292.186,-204.577,-261.114,-250.447,-217.014C-300.198,-169.183,-350.305,-119.327,-370.097,-53.212C-391.575,18.532,-398.089,99.495,-365.363,166.856C-332.87,233.739,-258.41,264.558,-196.045,305.051C-133.371,345.744,-73.331,389.711,0,404.081" fill="#011b24"></path><path d="M1440 993.7660000000001C1523.808 998.9649999999999 1614.464 985.567 1678.873 931.694 1741.216 879.549 1748.7359999999999 789.955 1775.445 713.193 1799.52 644.001 1833.517 577.293 1827.594 504.272 1821.461 428.666 1797.222 350.279 1741.804 298.485 1688.119 248.31 1609.281 240.60199999999998 1536.301 232.02800000000002 1472.868 224.575 1413.071 244.57299999999998 1349.685 252.41500000000002 1271.704 262.063 1176.5230000000001 228.00799999999998 1120.824 283.432 1065.755 338.23 1094.417 432.209 1091.003 509.822 1087.94 579.462 1080.233 648.155 1101.8690000000001 714.419 1125.354 786.346 1161.112 855 1219.444 903.191 1281.982 954.856 1359.037 988.7429999999999 1440 993.7660000000001" fill="#03374c"></path></g><defs><mask id="SvgjsMask1033"><rect width="1440" height="560" fill="#ffffff"></rect></mask></defs></svg>