<svg width="100" height="100" viewBox="0 0 100 100" fill="none" xmlns="http://www.w3.org/2000/svg">
<circle cx="50" cy="50" r="50" fill="#05668D"/>
<path fill-rule="evenodd" clip-rule="evenodd" d="M100 50C100 63.2608 94.7322 75.9785 85.3553 85.3553C75.9785 94.7322 63.2608 100 50 100C36.7392 100 24.0215 94.7322 14.6447 85.3553C5.26784 75.9785 0 63.2608 0 50C0 36.7392 5.26784 24.0215 14.6447 14.6447C24.0215 5.26784 36.7392 0 50 0C63.2608 0 75.9785 5.26784 85.3553 14.6447C94.7322 24.0215 100 36.7392 100 50V50ZM62.5 31.25C62.5 34.5652 61.183 37.7446 58.8388 40.0888C56.4946 42.433 53.3152 43.75 50 43.75C46.6848 43.75 43.5054 42.433 41.1612 40.0888C38.817 37.7446 37.5 34.5652 37.5 31.25C37.5 27.9348 38.817 24.7554 41.1612 22.4112C43.5054 20.067 46.6848 18.75 50 18.75C53.3152 18.75 56.4946 20.067 58.8388 22.4112C61.183 24.7554 62.5 27.9348 62.5 31.25V31.25ZM50 56.25C44.0163 56.2488 38.158 57.9656 33.1213 61.1963C28.0847 64.427 24.0815 69.0358 21.5875 74.475C25.1042 78.5662 29.4642 81.8485 34.3684 84.0967C39.2726 86.3449 44.605 87.5059 50 87.5C55.395 87.5059 60.7274 86.3449 65.6316 84.0967C70.5358 81.8485 74.8958 78.5662 78.4125 74.475C75.9185 69.0358 71.9153 64.427 66.8787 61.1963C61.842 57.9656 55.9837 56.2488 50 56.25V56.25Z" fill="#E6F0F4"/>
</svg>
